<svg width="53" height="53" viewBox="0 0 53 53" fill="none" xmlns="http://www.w3.org/2000/svg">
<g clip-path="url(#clip0)">
<path d="M42.9046 52.6049H10.0958C4.74366 52.6049 0.395508 48.2647 0.395508 42.9046V10.0958C0.395508 4.73575 4.73575 0.395508 10.0958 0.395508H42.9125C48.2647 0.395508 52.6128 4.73575 52.6128 10.0958V42.9125C52.6049 48.2647 48.2647 52.6049 42.9046 52.6049Z" stroke="black" stroke-opacity="0.6" stroke-miterlimit="10"/>
<path d="M36.1137 22.2705H16.887C13.6773 22.2705 11.0684 19.6695 11.0684 16.4519C11.0684 13.2422 13.6693 10.6333 16.887 10.6333H36.1137C39.3234 10.6333 41.9323 13.2343 41.9323 16.4519C41.9244 19.6616 39.3234 22.2705 36.1137 22.2705Z" stroke="black" stroke-opacity="0.6" stroke-miterlimit="10"/>
<path d="M16.7841 19.7566C18.6092 19.7566 20.0887 18.2771 20.0887 16.4521C20.0887 14.627 18.6092 13.1475 16.7841 13.1475C14.959 13.1475 13.4795 14.627 13.4795 16.4521C13.4795 18.2771 14.959 19.7566 16.7841 19.7566Z" fill="black" fill-opacity="0.6"/>
<path d="M16.887 30.7295H36.1137C39.3234 30.7295 41.9323 33.3305 41.9323 36.5481C41.9323 39.7578 39.3313 42.3667 36.1137 42.3667H16.887C13.6773 42.3667 11.0684 39.7657 11.0684 36.5481C11.0684 33.3305 13.6773 30.7295 16.887 30.7295Z" stroke="black" stroke-opacity="0.6" stroke-miterlimit="10"/>
<path d="M36.2167 39.8528C38.0418 39.8528 39.5213 38.3733 39.5213 36.5482C39.5213 34.7232 38.0418 33.2437 36.2167 33.2437C34.3916 33.2437 32.9121 34.7232 32.9121 36.5482C32.9121 38.3733 34.3916 39.8528 36.2167 39.8528Z" fill="black" fill-opacity="0.6"/>
</g>
<defs>
<clipPath id="clip0">
<rect width="53" height="53" fill="white"/>
</clipPath>
</defs>
</svg>
