<svg width="48" height="48" viewBox="0 0 48 48" fill="none" xmlns="http://www.w3.org/2000/svg">
<g clip-path="url(#clip0)">
<path opacity="0.1" d="M24.011 0C10.74 0 0 10.74 0 24.011C0 37.282 10.74 48.022 24.011 48.022C37.26 48.022 48.022 37.282 48.022 24.011C48 10.74 37.26 0 24.011 0ZM24.011 38.3384C16.088 38.3384 9.68363 31.912 9.68363 24.011C9.68363 16.11 16.088 9.68363 24.011 9.68363C31.934 9.68363 38.3384 16.11 38.3384 24.011C38.3384 31.912 31.912 38.3384 24.011 38.3384Z" fill="white"/>
<path opacity="0.87" d="M24.0112 12.5667C17.6948 12.5667 12.5889 17.6946 12.5889 23.9889C12.5889 30.3053 17.7168 35.4112 24.0112 35.4112C30.3275 35.4112 35.4334 30.2833 35.4334 23.9889C35.4334 17.6946 30.3275 12.5667 24.0112 12.5667ZM24.0112 30.8775C20.2037 30.8775 17.1446 27.7964 17.1446 24.0109C17.1446 20.2255 20.2257 17.1444 24.0112 17.1444C27.7966 17.1444 30.8777 20.2255 30.8777 24.0109C30.8777 27.7964 27.7966 30.8775 24.0112 30.8775Z" fill="white"/>
</g>
<defs>
<clipPath id="clip0">
<rect width="48" height="48" fill="white"/>
</clipPath>
</defs>
</svg>
