<svg width="53" height="53" viewBox="0 0 53 53" fill="none" xmlns="http://www.w3.org/2000/svg">
<g clip-path="url(#clip0)">
<path d="M42.9046 52.6049H10.0958C4.74366 52.6049 0.395508 48.2647 0.395508 42.9046V10.0958C0.395508 4.73575 4.73575 0.395508 10.0958 0.395508H42.9125C48.2647 0.395508 52.6128 4.73575 52.6128 10.0958V42.9125C52.6049 48.2647 48.2647 52.6049 42.9046 52.6049Z" stroke="black" stroke-opacity="0.6" stroke-miterlimit="10"/>
<path d="M34.2712 26.3338C33.5122 27.5197 32.8956 28.7925 32.5319 30.1523C32.3659 30.7848 32.2157 31.4884 32.1366 32.2394C32.018 33.2593 31.1563 34.0419 30.1286 34.0419H22.8632C21.8354 34.0419 20.9737 33.2593 20.8551 32.2394C20.7761 31.4963 20.6259 30.7848 20.4599 30.1523C20.0962 28.7925 19.4795 27.5197 18.7206 26.3338C15.7718 21.7485 16.3568 18.2621 16.3568 18.2621C16.3568 12.6648 20.8947 8.12695 26.4919 8.12695C32.0892 8.12695 36.6271 12.6648 36.6271 18.2621C36.635 18.2621 37.22 21.7485 34.2712 26.3338Z" stroke="black" stroke-opacity="0.6" stroke-miterlimit="10"/>
<path d="M21.1719 34.793L21.3458 35.6468C21.4644 36.216 21.9624 36.6192 22.5396 36.6192H30.0974C30.6746 36.6192 31.141 37.0856 31.141 37.6627C31.141 38.2399 30.6746 38.7063 30.0974 38.7063H22.3024C21.9545 38.7063 21.6699 38.9909 21.6699 39.3388C21.6699 39.6866 21.9545 39.9712 22.3024 39.9712H30.3583C30.7932 39.9712 31.1489 40.327 31.1489 40.7618C31.1489 41.1966 30.7932 41.5524 30.3583 41.5524H22.1522C21.8597 41.5524 21.6146 41.7895 21.6146 42.09C21.6146 42.3825 21.8518 42.6275 22.1522 42.6275H29.5045C29.8287 42.6275 29.9947 43.0228 29.7654 43.2521L29.2436 43.7739C28.6191 44.3984 27.7732 44.7463 26.8956 44.7463H24.9666C24.7532 44.7463 24.6504 44.9993 24.8006 45.1495L26.2553 46.6041" stroke="black" stroke-opacity="0.6" stroke-miterlimit="10"/>
</g>
<defs>
<clipPath id="clip0">
<rect width="53" height="53" fill="white"/>
</clipPath>
</defs>
</svg>
