<svg width="97" height="27" viewBox="0 0 97 27" fill="none" xmlns="http://www.w3.org/2000/svg">
<g opacity="0.87">
<path d="M10.98 0.800049L7.92004 10.088L4.93204 0.800049H0.828039L4.96804 13.04L0.540039 26H4.24804L7.52404 16.0281L10.764 26H14.94L10.512 13.04L14.652 0.800049H10.98Z" fill="black"/>
<path d="M16.9088 26H20.8688V0.800049H16.9088V26Z" fill="black"/>
<path d="M32.2243 26H36.2923V0.800049H32.7643V15.884L28.6963 0.800049H23.7283V26H27.2923V7.74805L32.2243 26Z" fill="black"/>
<path d="M42.8355 26H46.7955V17.6481L51.7995 0.800049H48.0195L44.9955 12.284L41.9715 0.800049H37.8315L42.8355 17.6481V26Z" fill="black"/>
<path d="M53.401 26H57.361V0.800049H53.401V26Z" fill="black"/>
<path d="M65.8463 26H76.3223V22.4001H69.8063V0.800049H65.8463V26Z" fill="black"/>
<path d="M78.0455 26H82.0055V0.800049H78.0455V26Z" fill="black"/>
<path d="M84.721 0.800049V19.988C84.721 24.02 86.737 26.3241 90.625 26.3241C94.513 26.3241 96.529 24.02 96.529 19.988V0.800049H92.785V20.2401C92.785 22.0401 91.993 22.688 90.733 22.688C89.473 22.688 88.681 22.0401 88.681 20.2401V0.800049H84.721Z" fill="black"/>
</g>
</svg>
