<svg width="78" height="22" viewBox="0 0 78 22" fill="none" xmlns="http://www.w3.org/2000/svg">
<path d="M8.73013 11.0672C8.48415 12.0032 8.88979 12.4475 9.44207 12.4475C10.0156 12.4475 10.3823 12.1592 10.5644 11.6263H12.4684C12.2532 12.3689 11.7423 12.9442 11.1581 13.2637C10.7205 13.4983 10.1528 13.6693 9.30962 13.6693C7.32518 13.6693 6.40273 12.7021 6.84858 10.5119C7.21756 8.69727 8.63789 7.59779 10.4142 7.59779C12.2106 7.59779 13.2288 8.57122 12.6245 11.0672H8.73013ZM10.9121 9.90283C11.028 9.38117 10.9097 8.73221 10.212 8.73221C9.53787 8.73221 9.19372 9.25263 9.00805 9.90283H10.9121Z" fill="black"/>
<path d="M30.9091 11.0672C30.6631 12.0032 31.0675 12.4475 31.621 12.4475C32.1946 12.4475 32.5612 12.158 32.7433 11.6263H34.6474C34.4333 12.3676 33.9212 12.9442 33.337 13.2637C32.8994 13.4983 32.3318 13.6693 31.4874 13.6693C29.5041 13.6693 28.5805 12.7021 29.0263 10.5119C29.3953 8.69727 30.8168 7.59779 32.5931 7.59779C34.3895 7.59779 35.4066 8.57122 34.8023 11.0672H30.9091ZM33.091 9.90283C33.2069 9.38117 33.0887 8.73221 32.3909 8.73221C31.7168 8.73221 31.3727 9.25263 31.1882 9.90283H33.091Z" fill="black"/>
<path d="M65.1189 11.0672C64.8741 12.0032 65.2773 12.4475 65.832 12.4475C66.4044 12.4475 66.771 12.158 66.9543 11.6263H68.8571C68.6431 12.3676 68.131 12.9442 67.5468 13.2637C67.1092 13.4983 66.5416 13.6693 65.6983 13.6693C63.7139 13.6693 62.7914 12.7021 63.2373 10.5119C63.6063 8.69727 65.0278 7.59779 66.8029 7.59779C68.5993 7.59779 69.6176 8.57122 69.0132 11.0672H65.1189ZM67.302 9.90283C67.4179 9.38117 67.2984 8.73221 66.6007 8.73221C65.9266 8.73221 65.5836 9.25263 65.398 9.90283H67.302Z" fill="black"/>
<path d="M19.3536 10.6329C18.8782 12.8955 17.4993 13.6693 15.5834 13.6693C13.8852 13.6693 12.5997 12.742 13.0373 10.6329C13.4949 8.42396 14.8975 7.59779 16.8075 7.59779C18.5057 7.59779 19.7794 8.52255 19.3536 10.6329ZM15.8377 12.4138C16.7022 12.4138 17.0818 11.4429 17.245 10.6329C17.4082 9.82296 17.4201 8.85327 16.5544 8.85327C15.6887 8.85327 15.3103 9.82296 15.1459 10.6329C14.9827 11.4441 14.9708 12.4138 15.8377 12.4138Z" fill="black"/>
<path d="M22.3067 8.57871H22.328C22.8743 7.90604 23.4893 7.59779 24.2887 7.59779C25.9007 7.59779 26.3453 9.05544 26.0083 10.5543C25.4702 12.9355 24.3183 13.6693 22.8377 13.6693C22.2322 13.6693 21.6893 13.3897 21.4753 12.8131H21.4528L20.8733 15.6885H18.8179L20.4145 7.76752H22.4699L22.3067 8.57871ZM21.8916 10.6329C21.6503 11.8534 22.0347 12.3377 22.5609 12.3377C23.2421 12.3377 23.6087 11.9321 23.8807 10.6329C24.1374 9.40987 23.7696 8.91816 23.2386 8.91816C22.5515 8.91816 22.1056 9.62203 21.8916 10.6329Z" fill="black"/>
<path d="M25.8983 13.4983L27.4842 5.57479H29.5396L27.9525 13.4983H25.8983Z" fill="black"/>
<path d="M36.3633 5.57479H38.3963L36.6566 8.3054H35.1854L36.3633 5.57479Z" fill="black"/>
<path d="M57.3466 7.76876L56.1995 13.4983H58.2549L59.4021 7.76876H57.3466Z" fill="black"/>
<path d="M63.4786 9.05919L63.7446 7.77126H62.6318L63.0079 5.95293H60.9513L60.5752 7.77126H59.803L59.5369 9.05919H60.3091L59.6409 12.289C59.473 13.0964 59.9271 13.6668 61.1594 13.6668C61.8158 13.6668 62.2817 13.5619 62.5632 13.4035L62.8257 12.1604C62.0109 12.4213 61.7259 12.1505 61.7933 11.8197L62.3645 9.05919H63.4786Z" fill="black"/>
<path d="M59.9733 5.54484C60.1885 6.07648 59.8136 6.75539 59.136 7.06115C58.4583 7.36691 57.7345 7.18221 57.5193 6.65056C57.3041 6.11767 57.6778 5.43876 58.3554 5.13425C59.0343 4.82849 59.758 5.01195 59.9733 5.54484Z" fill="black"/>
<path d="M5.23075 8.12195C5.13023 8.62738 4.94692 8.8957 4.3083 8.8957C3.66968 8.8957 3.07246 8.88322 3.07246 8.88322L3.38585 7.34195C3.38585 7.34195 3.9476 7.34195 4.50343 7.34195C5.05927 7.3407 5.33127 7.61526 5.23075 8.12195ZM5.27805 5.57729H1.60955L0 13.4933H2.13819L2.71885 10.6379H4.25863C5.94978 10.6379 6.94437 10.0838 7.32636 8.11321C7.67996 6.28615 6.35424 5.57729 5.27805 5.57729Z" fill="black"/>
<path d="M39.1697 9.55464H41.1068C41.3493 8.10697 40.4517 7.59654 38.9379 7.59654C37.4253 7.59654 36.3054 8.17062 36.0736 9.3637C35.8726 10.3983 36.4402 10.7452 37.7577 11.1621C38.6659 11.4491 38.8575 11.6413 38.7865 11.9495C38.7014 12.3202 38.4034 12.4175 38.0509 12.4175C37.6985 12.4175 37.3757 12.1629 37.5058 11.6413C37.5058 11.6513 35.5899 11.6413 35.5899 11.6413C35.2375 13.0565 36.0038 13.663 37.6985 13.663C39.7054 13.663 40.4694 13.0016 40.7438 11.992C41.0359 10.9174 40.5569 10.291 39.1401 9.94901C38.213 9.72437 37.9552 9.60706 38.0308 9.23516C38.0805 8.99055 38.2827 8.84204 38.6754 8.84204C39.0692 8.84204 39.2513 9.14031 39.1697 9.55464Z" fill="black"/>
<path d="M73.4942 10.6541C73.2293 11.9558 72.7515 12.3015 72.1472 12.3015C71.6434 12.3015 71.2626 11.7611 71.5677 10.4145C71.822 9.29381 72.2099 8.84703 72.8887 8.84703C73.4185 8.84828 73.7579 9.35247 73.4942 10.6541ZM74.5385 5.57729L73.9708 8.36031H73.9495C73.8206 7.87859 73.3298 7.59779 72.5729 7.59779C70.8309 7.59779 69.7547 8.90194 69.4035 10.714C69.1114 12.2228 69.5111 13.6693 71.123 13.6693C71.9225 13.6693 72.5363 13.4571 73.0838 12.6884H73.1051L72.9431 13.4983H74.9973L76.5939 5.57729H74.5385Z" fill="black"/>
<path d="M52.6031 8.37404C53.1838 7.80246 53.8484 7.57532 54.5415 7.57532C55.7832 7.57532 56.3343 8.37404 56.0789 9.64075L55.3054 13.4758H53.25L53.9856 9.85915C54.0755 9.30005 53.8674 9.01052 53.3695 9.01052C52.7309 9.01052 52.4234 9.34747 52.3051 9.90907L51.5743 13.4758H49.5189L50.6849 7.74755L52.6966 7.7463L52.6031 8.37404Z" fill="black"/>
<path d="M48.1139 5.55482C48.1139 5.55482 47.1595 10.2473 47.0377 10.8426C46.8438 11.7935 46.1448 12.0631 45.6576 12.0631C45.1715 12.0631 44.5507 11.7611 44.7411 10.8263C44.9456 9.82171 45.8137 5.55482 45.8137 5.55482H43.7063C43.7063 5.55482 42.8595 9.62328 42.6253 10.7702C42.3072 12.3327 43.0665 13.6456 45.3986 13.6456C47.7307 13.6456 48.8069 12.6035 49.17 10.8201C49.4242 9.57086 50.2474 5.55482 50.2474 5.55482H48.1139Z" fill="black"/>
<path d="M35.1263 2.47353C45.7581 0.37815 55.0902 1.4327 57.2 5.27402C57.7381 4.46907 58.9396 4.1109 59.6989 4.46283C57.9427 -0.212151 46.8769 -1.41771 34.4274 1.81833C29.3563 3.13621 24.75 5.01694 21.1985 7.11981H21.9448C25.4099 5.15047 29.9949 3.48565 35.1263 2.47353Z" fill="black"/>
<path d="M51.2892 14.7962C47.8159 16.7094 43.2249 18.3767 38.0876 19.435C24.4862 22.238 13.3388 19.8618 16.0364 14.3008C15.1837 14.3594 14.3961 14.2458 13.884 13.9663C13.34 15.0795 13.1555 16.1615 13.3909 17.1674C14.5711 22.2268 25.8486 23.4785 38.7038 20.1376C43.4496 18.9034 47.7343 17.1961 51.1911 15.2792L51.2892 14.7962Z" fill="black"/>
<path d="M55.3161 16.7269C55.2108 17.261 54.8667 17.4994 54.4043 17.4994C54.2091 17.4994 53.6971 17.4994 53.2607 17.4994L53.58 15.8433C53.58 15.8433 54.2375 15.8433 54.7461 15.8433C55.1919 15.8433 55.4131 16.2376 55.3161 16.7269ZM55.0157 19.5773C54.9258 20.1289 54.5426 20.4272 54.1287 20.4272C53.8425 20.4272 53.1318 20.4272 52.7179 20.4272L53.0324 18.7062C53.4747 18.7062 54.014 18.7062 54.2695 18.7062C54.8395 18.7062 55.0949 19.093 55.0157 19.5773ZM57.2367 16.612C57.472 15.3628 56.7482 14.4667 55.7052 14.4667C54.6621 14.4667 51.9775 14.4667 51.9775 14.4667L50.5525 21.8336C50.5525 21.8336 53.839 21.8336 54.5781 21.8336C55.769 21.8336 56.6856 21.2683 56.9434 19.9005C57.0971 19.0881 56.6205 18.2993 55.8199 18.1296C56.4774 17.9761 57.0806 17.4494 57.2367 16.612Z" fill="black"/>
<path d="M65.7953 17.085C66.3086 16.5534 66.8975 16.3412 67.5101 16.3412C68.6088 16.3412 69.0972 17.085 68.8713 18.2631L68.1866 21.8311H66.3677L67.0182 18.4653C67.0986 17.9461 66.9141 17.6753 66.4741 17.6753C65.9089 17.6753 65.6357 17.9886 65.5316 18.5115L64.8847 21.8311H63.067L64.0935 16.5022H65.8805L65.7953 17.085Z" fill="black"/>
<path d="M75.2445 16.5047H73.2021L71.4636 18.3492L72.2028 14.4642H70.3839L68.9813 21.8324H70.8002L71.0746 20.3885L71.6126 19.888L72.3163 21.8324H74.4888L73.1134 18.489L75.2445 16.5047Z" fill="black"/>
<path d="M60.7727 20.1576C60.6651 20.5906 60.0809 20.8752 59.7154 20.9014C59.3039 20.9313 59.0295 20.683 59.0969 20.3048C59.1797 19.8281 59.4955 19.6883 60.0348 19.5498C60.3694 19.4637 60.7834 19.3277 60.9726 19.2004C60.9714 19.1991 60.8815 19.717 60.7727 20.1576ZM62.9688 18.202C63.0859 17.5842 62.9547 16.345 60.9442 16.345C58.9337 16.345 58.126 16.9715 57.9167 18.1583H59.6539C59.758 17.7714 60.0655 17.5181 60.5705 17.5181C61.0755 17.5181 61.2943 17.724 61.2032 18.0747C61.1121 18.4254 60.6852 18.5764 59.7509 18.6825C58.1118 18.8697 57.3845 19.3377 57.2024 20.4509C57.0368 21.4605 57.6872 21.9871 58.5884 21.9871C59.583 21.9871 60.1909 21.75 60.6592 21.277C60.6403 21.599 60.7632 21.8311 60.7632 21.8311H62.4958L62.5053 21.7787C62.3586 21.6889 62.3149 21.584 62.361 21.3232C62.4106 21.0536 62.8518 18.8197 62.9688 18.202Z" fill="black"/>
<path d="M76.815 16.7431C76.1433 16.7431 75.63 16.2039 75.63 15.4926C75.63 14.7825 76.1433 14.2421 76.815 14.2421C77.4879 14.2421 78 14.7837 78 15.4926C78 16.2039 77.4867 16.7431 76.815 16.7431ZM76.815 14.463C76.2604 14.463 75.8393 14.906 75.8393 15.4926C75.8393 16.0779 76.2604 16.5209 76.815 16.5209C77.3697 16.5209 77.7883 16.0779 77.7883 15.4926C77.7883 14.9073 77.3697 14.463 76.815 14.463ZM77.1237 15.6136L77.3732 16.1515H77.0634L76.8304 15.6511H76.6081V16.1515H76.3349V14.7875H76.9356C77.184 14.7875 77.3791 14.9248 77.3791 15.2155C77.3791 15.4514 77.2609 15.5575 77.1237 15.6136ZM76.9155 15.0496H76.6081V15.399H76.9155C77.0338 15.399 77.0977 15.3353 77.0977 15.2218C77.0988 15.102 77.0314 15.0496 76.9155 15.0496Z" fill="black"/>
</svg>
