<svg width="53" height="53" viewBox="0 0 53 53" fill="none" xmlns="http://www.w3.org/2000/svg">
<g clip-path="url(#clip0)">
<path d="M9.91992 17.8005V4.51039C9.91992 2.23919 11.7029 0.401367 13.9064 0.401367H43.3768C45.2533 0.401367 46.8183 1.73359 47.2465 3.53129C47.3244 3.84428 47.3633 4.17332 47.3633 4.51039V42.6553C47.3633 44.9265 45.5803 46.7643 43.3768 46.7643H13.9064C13.4704 46.7643 13.0499 46.6921 12.6606 46.5557C11.0645 46.018 9.91992 44.4771 9.91992 42.6553V38.7309" stroke="black" stroke-opacity="0.6" stroke-miterlimit="10"/>
<path d="M49.9867 7.42359V45.5765C49.9867 47.8397 48.2037 49.6775 46.0002 49.6775H16.5298C16.0938 49.6775 15.6734 49.6053 15.2841 49.4769C13.9916 49.0355 12.9872 47.936 12.6602 46.5556C13.0495 46.6921 13.4699 46.7643 13.9059 46.7643H43.3763C45.5798 46.7643 47.3628 44.9265 47.3628 42.6553V4.51035C47.3628 4.17328 47.3239 3.84424 47.246 3.53125C48.5385 3.96462 49.5429 5.06411 49.8699 6.43646C49.9478 6.74945 49.9867 7.08652 49.9867 7.42359Z" stroke="black" stroke-opacity="0.6" stroke-miterlimit="10"/>
<path d="M52.6108 10.3449V48.4898C52.6108 50.761 50.8277 52.5988 48.6243 52.5988H19.1539C17.2852 52.5988 15.7124 51.2747 15.2842 49.477C15.6735 49.6054 16.0939 49.6776 16.53 49.6776H46.0004C48.2038 49.6776 49.9868 47.8398 49.9868 45.5766V7.42365C49.9868 7.08658 49.9479 6.74952 49.8701 6.43652C51.4584 6.97423 52.6108 8.52314 52.6108 10.3449Z" stroke="black" stroke-opacity="0.6" stroke-miterlimit="10"/>
<path d="M26.5977 24.662V32.3263C26.5977 34.4611 24.9237 36.1865 22.8526 36.1865H4.13476C2.07145 36.1865 0.389648 34.4611 0.389648 32.3263V24.662C0.389648 22.5272 2.07145 20.8018 4.13476 20.8018H22.8526C24.9237 20.8018 26.5977 22.5272 26.5977 24.662Z" stroke="black" stroke-opacity="0.6" stroke-miterlimit="10"/>
<path d="M7.52901 31.251C7.49008 31.1467 7.43557 31.0584 7.35771 30.9862C7.28764 30.9139 7.20199 30.8578 7.10856 30.8176C7.01512 30.7695 6.90612 30.7534 6.79711 30.7534C6.68811 30.7534 6.5791 30.7695 6.48567 30.8176C6.38445 30.8578 6.2988 30.9139 6.22873 30.9862C6.15865 31.0584 6.10415 31.1467 6.06522 31.251C6.02629 31.3473 6.00293 31.4516 6.00293 31.564C6.00293 31.6844 6.02629 31.7887 6.06522 31.885C6.10415 31.9893 6.15865 32.0696 6.22873 32.1418C6.2988 32.214 6.38445 32.2702 6.48567 32.3104C6.5791 32.3585 6.68811 32.3746 6.79711 32.3746C6.90612 32.3746 7.01512 32.3585 7.10856 32.3104C7.20199 32.2702 7.28764 32.214 7.35771 32.1418C7.43557 32.0696 7.49008 31.9893 7.52901 31.885C7.57572 31.7887 7.59129 31.6844 7.59129 31.564C7.59129 31.4516 7.57572 31.3473 7.52901 31.251Z" fill="black" fill-opacity="0.6"/>
<path d="M11.4144 24.4937V29.5577C11.4144 29.8546 11.3833 30.1034 11.3365 30.3121C11.282 30.5208 11.2042 30.6893 11.103 30.8177C11.0017 30.9461 10.8694 31.0424 10.7137 31.0986C10.5657 31.1548 10.3866 31.1869 10.1842 31.1869C10.083 31.1869 9.98955 31.1869 9.91947 31.1628C9.88054 31.1628 9.85718 31.1548 9.82604 31.1467C9.72482 31.1227 9.64696 31.1146 9.59246 31.1146C9.49902 31.1146 9.42116 31.1387 9.37445 31.1869C9.31994 31.235 9.2888 31.2992 9.28101 31.3795C9.27323 31.5239 9.25765 31.6684 9.24208 31.8128C9.22651 31.9573 9.21872 32.0937 9.21094 32.2382C9.40559 32.2944 9.60024 32.3265 9.77932 32.3506C9.82604 32.3586 9.87276 32.3586 9.91947 32.3666C10.0518 32.3827 10.192 32.3907 10.3321 32.3907C10.7448 32.3907 11.1107 32.3185 11.4144 32.19C11.7258 32.0536 11.9906 31.861 12.193 31.6122C12.3332 31.4437 12.4577 31.2511 12.5434 31.0344C12.5901 30.9301 12.6368 30.8257 12.668 30.7134C12.7692 30.3602 12.8237 29.967 12.8237 29.5256V24.4937H11.4144Z" fill="black" fill-opacity="0.6"/>
<path d="M19.8542 29.0279C19.753 28.8032 19.6206 28.6106 19.4571 28.4501C19.2936 28.2976 19.1068 28.1692 18.8965 28.0649C18.6863 27.9605 18.4761 27.8723 18.2503 27.792C18.0323 27.7198 17.8221 27.6476 17.6118 27.5753C17.4016 27.5111 17.2147 27.4309 17.0512 27.3426C16.8877 27.2543 16.7554 27.15 16.6541 27.0296C16.5529 26.9092 16.5062 26.7567 16.5062 26.5721C16.5062 26.4277 16.5296 26.2913 16.5763 26.1709C16.623 26.0505 16.7009 25.9462 16.8021 25.8659C16.9033 25.7776 17.0201 25.7134 17.168 25.6653C17.316 25.6091 17.4872 25.585 17.6819 25.585C17.8999 25.585 18.0868 25.6171 18.2425 25.6733C18.406 25.7295 18.5462 25.7937 18.6629 25.8579C18.7797 25.9301 18.881 25.9863 18.9666 26.0425C19.0523 26.0986 19.1379 26.1307 19.208 26.1307C19.2781 26.1307 19.3326 26.1147 19.3793 26.0746C19.4338 26.0425 19.4727 25.9863 19.5194 25.9141L19.8698 25.2239C19.6051 24.9671 19.2781 24.7664 18.9043 24.622C18.5306 24.4775 18.1179 24.4053 17.6663 24.4053C17.2692 24.4053 16.9189 24.4695 16.6074 24.5979C16.3038 24.7183 16.0468 24.8868 15.8366 25.0955C15.6264 25.3041 15.4629 25.5449 15.3539 25.8177C15.2449 26.0826 15.1903 26.3635 15.1903 26.6444C15.1903 27.0055 15.2371 27.3025 15.3383 27.5432C15.4395 27.792 15.5719 27.9926 15.7354 28.1532C15.8989 28.3137 16.0858 28.4501 16.296 28.5464C16.5062 28.6507 16.7164 28.731 16.9344 28.8032C17.1524 28.8754 17.3627 28.9477 17.5729 29.0038C17.7831 29.0681 17.97 29.1403 18.1335 29.2286C18.297 29.3168 18.4294 29.4292 18.5306 29.5576C18.6318 29.686 18.6785 29.8545 18.6785 30.0632C18.6785 30.4244 18.5695 30.7052 18.3515 30.9059C18.1257 31.0985 17.8143 31.2028 17.4172 31.2028C17.1524 31.2028 16.9266 31.1627 16.7398 31.0905C16.5529 31.0182 16.3894 30.93 16.2493 30.8417C16.1091 30.7534 15.9923 30.6731 15.8911 30.5929C15.7899 30.5207 15.6964 30.4886 15.6108 30.4886C15.5485 30.4886 15.4862 30.5046 15.4317 30.5367C15.3772 30.5688 15.3305 30.617 15.2916 30.6651L15.167 30.8738L14.8789 31.3633C14.9646 31.4516 15.0658 31.5399 15.167 31.6121C15.2371 31.6763 15.3071 31.7325 15.385 31.7806C15.5719 31.9091 15.7743 32.0134 15.9845 32.1097C16.2025 32.198 16.4283 32.2622 16.6619 32.3103C16.8955 32.3665 17.1369 32.3906 17.3705 32.3906C17.7909 32.3906 18.1646 32.3184 18.4917 32.1899C18.8187 32.0615 19.0912 31.877 19.317 31.6522C19.5428 31.4195 19.7141 31.1547 19.8309 30.8417C19.9477 30.5367 20.0022 30.2077 20.0022 29.8545C20.0022 29.5335 19.9554 29.2526 19.8542 29.0279Z" fill="black" fill-opacity="0.6"/>
</g>
<defs>
<clipPath id="clip0">
<rect width="53" height="53" fill="white"/>
</clipPath>
</defs>
</svg>
