<svg width="108" height="108" viewBox="0 0 108 108" fill="none" xmlns="http://www.w3.org/2000/svg">
<circle cx="54" cy="54" r="54" fill="#F5F5F5"/>
<path fill-rule="evenodd" clip-rule="evenodd" d="M42.8412 38.6667C41.0893 35.8051 37.1985 32.9167 31 32.9167V31C38.6878 31 43.2954 35.0442 45.0185 38.6667H56.8232L77 59.0312L59.0312 77L38.6667 56.7197V44.7559L38.1262 44.5106C36.1271 43.5982 33.8597 42.5652 31 42.5652V40.6485C34.1453 40.6485 36.6407 41.7295 38.6667 42.6495V38.6667H42.8412ZM63.8172 56.1256C63.0217 55.3302 62.1593 54.943 61.176 54.943C60.0682 54.943 58.8242 55.4049 57.0149 56.484C55.7078 57.2698 54.8721 57.6033 54.2242 57.6033C53.5323 57.6033 52.1485 56.8213 52.3823 55.2688C52.482 54.6076 52.8615 53.9329 53.4787 53.3138C54.7283 52.0661 56.438 51.6885 57.841 53.1107L59.267 51.6847C58.3547 50.7723 57.1663 50.1667 55.8918 50.1667C54.8069 50.1667 53.7355 50.6017 52.7043 51.4643L51.5045 50.2625L50.1667 51.6022L51.4182 52.8519C50.3277 54.4351 49.8044 56.7255 51.5639 58.4831C53.5017 60.4208 55.7576 59.52 58.1055 58.0384C59.2555 57.312 60.1812 56.9593 60.9326 56.9593C62.0615 56.9593 63.1942 57.9138 62.9987 59.3705C62.8991 60.1103 62.5004 60.8329 61.8085 61.521C60.9441 62.3854 60.0758 62.8224 59.2267 62.8224C58.4256 62.8224 57.795 62.4544 57.2162 61.9369L55.7997 63.3533C56.6872 64.2312 57.8736 64.7966 59.1252 64.7966C60.1678 64.7966 61.2086 64.4113 62.2148 63.6523L63.2498 64.6835L64.5858 63.3476L63.5891 62.349C65.0132 60.6317 65.8067 58.1151 63.8172 56.1256ZM45.7909 42.5C45.6932 43.3529 45.3788 44.0908 44.8518 44.6352C44.11 45.398 43.3242 45.7277 42.5 45.7832C42.5153 47.5696 43.9682 49.0128 45.7564 49.0128C47.5542 49.0128 49.0128 47.5542 49.0128 45.7564C49.0128 43.9701 47.5734 42.5173 45.7909 42.5Z" fill="#454D58"/>
</svg>
