<svg width="108" height="108" viewBox="0 0 108 108" fill="none" xmlns="http://www.w3.org/2000/svg">
<circle cx="54" cy="54" r="54" fill="#F5F5F5"/>
<g clip-path="url(#clip0)">
<path fill-rule="evenodd" clip-rule="evenodd" d="M62.9251 72H45.0751V68.376C45.0751 66.159 44.7451 65.829 44.1166 64.7085C41.9461 60.837 38.8996 55.377 37.6801 53.058C37.3531 52.437 37.5556 51.6705 38.1451 51.291H38.1466C38.7676 50.892 39.5851 51 40.0831 51.5445C41.4466 53.0355 44.2921 56.007 46.7356 58.542C48.5671 60.4455 48.8101 61.422 53.8981 61.4835C58.9846 61.545 59.3206 60.5625 61.2646 58.542C63.7081 56.007 66.5536 53.0355 67.9171 51.5445C68.4151 51 69.2326 50.892 69.8536 51.291H69.8551C70.2511 51.546 70.4731 51.975 70.4761 52.419C70.4776 52.635 70.4281 52.8555 70.3201 53.058C69.1006 55.377 66.0541 60.837 63.8836 64.7085C63.2551 65.829 62.9251 66.018 62.9251 68.376V72ZM54.0001 45C57.7261 45 60.7501 48.024 60.7501 51.75C60.7501 55.476 57.7261 58.5 54.0001 58.5C50.2741 58.5 47.2501 55.476 47.2501 51.75C47.2501 48.024 50.2741 45 54.0001 45ZM51.9736 37.035L50.5321 36L45.0466 43.641C43.2766 40.932 39.8611 40.2165 38.1001 42.669C37.7071 43.218 37.5226 43.848 37.5196 44.4795C37.5136 45.591 38.0641 46.704 39.0001 47.3775C40.7461 48.63 43.4521 48.897 45.0691 46.65L51.9736 37.035ZM64.9801 36L66.7816 39.3255L70.5001 40.011L67.8946 42.7515L68.3911 46.5L64.9801 44.868L61.5676 46.5L62.0656 42.7515L59.4601 40.011L63.1786 39.3255L64.9801 36V36Z" fill="#454D58"/>
</g>
<defs>
<clipPath id="clip0">
<rect width="36" height="36" fill="white" transform="translate(36 36)"/>
</clipPath>
</defs>
</svg>
