<svg width="42" height="13" viewBox="0 0 42 13" fill="none" xmlns="http://www.w3.org/2000/svg">
<path d="M27.6149 3.23042C24.6832 3.23042 22.7555 5.39157 22.7555 8.04322C22.7555 10.9585 24.8249 12.8035 27.8423 12.8035C29.7419 12.8035 31.729 11.7086 32.3156 9.7567H29.3237C29.1043 10.2556 28.4619 10.6106 27.7757 10.6106C26.7374 10.6106 26.103 9.86487 26.011 8.76862H32.5064C32.5619 8.53375 32.5824 8.28782 32.5824 8.04322C32.5824 5.5717 31.0183 3.23042 27.6149 3.23042H27.6149ZM26.0276 6.98893C26.1862 5.98319 26.7799 5.42513 27.8101 5.42513C28.7027 5.42513 29.3318 6.12756 29.3318 6.98893H26.0276ZM19.0421 3.53682C17.8189 3.53682 16.9749 3.92843 16.3414 4.48914V0.453825H12.9474V12.547H16.3414V7.95404C16.3414 6.59643 17.0603 6.21322 17.6268 6.21322C18.6208 6.21322 18.8089 6.92313 18.8089 7.93991V12.547H22.2029V6.51872C22.2029 4.50194 20.7134 3.53682 19.0421 3.53682ZM6.41808 9.81983C4.53992 9.81983 3.93814 8.1258 3.93814 6.50151C3.93814 4.87458 4.53992 3.1823 6.41808 3.1823C8.07644 3.1823 8.4754 4.51872 8.54866 4.95889H12.2925C11.9534 1.92711 9.68209 0.165527 6.52397 0.165527C2.76809 0.165527 0.167969 2.81984 0.167969 6.50151C0.167969 10.0737 2.54516 12.8344 6.52397 12.8344C10.0274 12.8344 12.3461 10.2432 12.3461 7.80526H8.56788C8.32708 8.9386 7.76729 9.81983 6.41808 9.81983ZM33.2369 12.547H36.63V3.75714H33.2369V12.547ZM38.4393 12.547H41.8329V0.454265H38.4393V12.547ZM33.2369 3.43485L36.777 0.453825H33.2369V3.43485Z" fill="black"/>
</svg>
