<svg width="58" height="22" viewBox="0 0 58 22" fill="none" xmlns="http://www.w3.org/2000/svg">
<path d="M32.1962 0.0192331C32.1822 0.0309757 32.1706 0.770756 32.1706 1.65849V3.27192H30.399V5.67444H32.1706V8.42924C32.1706 11.3555 32.1892 11.7524 32.3587 12.4029C32.7743 14.0328 34.0514 14.5095 37.337 14.2559C37.6388 14.2324 37.8942 14.2019 37.9151 14.1831C37.9291 14.169 37.9383 13.5654 37.9337 12.8397L37.9221 11.5269H37.186C36.5591 11.5269 36.4291 11.5152 36.2991 11.4588C36.0947 11.3672 35.9484 11.2193 35.8509 11.0126C35.7766 10.8459 35.772 10.8106 35.772 8.2672V5.69558L37.9221 5.658V3.29305L35.772 3.25548L35.7348 0.0121876L33.9771 0.000445043C33.0112 -0.00190347 32.2078 0.00514206 32.1962 0.0192331ZM24.6452 2.99244C23.2497 3.10282 21.8472 3.75806 20.9347 4.72095C19.7621 5.95626 19.2606 7.43347 19.3836 9.2841C19.4928 10.9398 20.0617 12.1869 21.1483 13.1568C21.759 13.7016 22.7017 14.1784 23.5028 14.3428C23.6119 14.3663 23.8232 14.4109 23.9672 14.4391C24.1135 14.4743 24.5778 14.5048 25.0306 14.5189C25.6761 14.533 25.9199 14.526 26.2938 14.4743C28.0445 14.2254 29.3564 13.4551 30.1227 12.2244C30.3572 11.851 30.6962 10.9915 30.6428 10.9093C30.6288 10.8858 29.9717 10.8717 28.964 10.8717H27.3085L27.1738 11.0854C26.8835 11.5434 26.4772 11.8299 25.8921 11.9778C25.1142 12.1728 24.2621 11.9661 23.7118 11.4471C23.4447 11.1911 23.2752 10.9281 23.1429 10.5546C23.0407 10.2728 22.9502 9.7538 22.9873 9.68804C23.0012 9.66221 24.3271 9.65047 26.9323 9.65047H30.8518V9.10561C30.8518 8.45273 30.7566 7.65658 30.6172 7.15165C30.5081 6.74066 30.3015 6.16763 30.1691 5.8999C29.4005 4.35458 28.1281 3.39639 26.4401 3.08873C26.0198 3.00654 25.0608 2.95722 24.6452 2.99244ZM25.7667 5.56171C26.4331 5.78717 26.9439 6.35786 27.1506 7.12582C27.1947 7.28317 27.2295 7.44991 27.2295 7.49689V7.58378H23.0059V7.49219C23.0059 7.34658 23.1452 6.95438 23.2961 6.66082C23.5608 6.14884 23.9718 5.78247 24.4966 5.5899C24.8379 5.46073 25.43 5.44899 25.7667 5.56171ZM51.2338 3.00419C50.4421 3.08873 49.8198 3.27192 49.0837 3.64533C48.1782 4.10799 47.2656 5.06383 46.7873 6.05725C46.1209 7.44522 46.0141 9.29584 46.5203 10.8106C46.857 11.8181 47.4398 12.6683 48.2362 13.3047C49.0094 13.9224 49.7269 14.2441 50.8205 14.4579C50.9947 14.4931 51.3639 14.5119 51.8956 14.5119C52.7361 14.5119 52.9219 14.4884 53.5744 14.317C54.7237 14.0163 55.75 13.3259 56.4629 12.3747C57.452 11.0619 57.8235 9.25357 57.4776 7.4734C57.0294 5.16247 55.3089 3.47154 53.0078 3.07229C52.5991 2.99479 51.6541 2.96191 51.2338 3.00419ZM52.3437 5.83414C52.8453 5.94922 53.3631 6.38839 53.6022 6.89802C54.1804 8.12159 54.1293 9.78198 53.4861 10.8271C53.3282 11.0854 53.2029 11.2193 52.9985 11.3649C52.5527 11.6772 52.093 11.7923 51.6077 11.7078C51.264 11.6514 51.1177 11.5903 50.8298 11.3954C50.1843 10.9492 49.8198 10.0027 49.8198 8.76273C49.8198 7.99712 49.9219 7.49688 50.1866 6.93559C50.4583 6.36725 50.8832 5.98679 51.4057 5.84353C51.6123 5.78717 52.1208 5.78012 52.3437 5.83414ZM7.59974 3.07934C7.20269 3.17093 6.97282 3.25548 6.67561 3.41518C6.18103 3.68291 5.73986 4.07041 5.42408 4.52132L5.29869 4.69277L5.28708 4.0023L5.28012 3.31184L3.53401 3.31889L1.79255 3.33063V7.1634C1.79255 10.7824 1.79719 11.0126 1.86453 11.2827C2.14084 12.4076 2.98835 13.2319 4.24453 13.603C4.7391 13.7486 4.84127 13.7698 5.1199 13.7909L5.39621 13.8144V11.1277C5.39621 7.96659 5.42175 7.57673 5.65627 6.97786C5.9024 6.36021 6.3041 6.06899 6.98675 6.03141C7.65779 5.98914 8.04324 6.25217 8.26614 6.90036C8.431 7.39355 8.44726 7.77401 8.4519 11.123V14.2582L10.2352 14.2512L12.0161 14.2395L12.0393 10.9774C12.0532 9.18546 12.0765 7.65423 12.0881 7.58143C12.2436 6.79938 12.4131 6.47528 12.7939 6.22634C13.1631 5.98679 13.8226 5.94687 14.2266 6.1418C14.4727 6.25922 14.7514 6.54339 14.8605 6.78529C15.0764 7.24794 15.0671 7.12112 15.0834 10.8318L15.095 14.2535L16.8759 14.2465L18.6569 14.2348V10.4443C18.6569 6.38134 18.6569 6.41657 18.4618 5.59929C18.2923 4.89004 17.9858 4.32875 17.5307 3.89427C16.9038 3.28836 16.0563 3.00654 14.8837 3.00654C13.5788 3.00654 12.6964 3.38465 11.8327 4.30996C11.6562 4.50019 11.5076 4.65049 11.5006 4.6411C11.2893 4.29117 11.0037 3.91306 10.8435 3.7745C10.5904 3.55374 10.1492 3.3048 9.81721 3.19911C9.16938 2.99949 8.19416 2.94548 7.59974 3.07934ZM45.0296 3.10517C44.9762 3.11222 44.8415 3.1404 44.7277 3.16154C43.7548 3.35177 42.9654 3.92715 42.5149 4.78201L42.3524 5.08262V3.26957H38.8834V14.2207L40.6666 14.2136L42.4476 14.2019L42.4662 11.2639C42.4894 7.99947 42.4731 8.21318 42.7564 7.62136C42.9607 7.19862 43.3926 6.7665 43.8245 6.56453C44.001 6.47998 44.2471 6.38604 44.3725 6.35786C44.7092 6.27801 45.5799 6.2921 45.956 6.38134C46.1209 6.41892 46.2997 6.44945 46.3531 6.45415L46.4483 6.45884L46.4599 4.83368C46.4669 3.41048 46.4599 3.20146 46.4111 3.15919C46.3508 3.10987 45.2455 3.0676 45.0296 3.10517ZM56.1192 3.30949C56.1192 3.37055 56.1494 3.38465 56.2632 3.39639L56.4025 3.40813L56.4211 3.8473C56.4396 4.25594 56.4443 4.28647 56.5163 4.28647C56.5883 4.28647 56.5906 4.25594 56.6022 3.83556L56.6138 3.38934H56.7601C56.8855 3.38934 56.911 3.3776 56.911 3.31419C56.911 3.24139 56.8855 3.23904 56.514 3.23904C56.1494 3.23669 56.1192 3.23904 56.1192 3.30949ZM56.9853 3.75571C56.9853 4.27003 56.9853 4.27003 57.0712 4.25829C57.1455 4.24655 57.1548 4.22306 57.1664 3.97882L57.1804 3.71109L57.2848 3.97882C57.4474 4.38981 57.5495 4.40155 57.6772 4.02814C57.7794 3.73927 57.8119 3.72283 57.8119 3.96708C57.8119 4.23011 57.8375 4.30291 57.928 4.30291C57.9954 4.30291 58 4.26769 58 3.7698V3.23669H57.8955C57.798 3.23669 57.7794 3.26252 57.6726 3.53025C57.6076 3.69465 57.5449 3.86139 57.5286 3.90367C57.5054 3.96942 57.4938 3.96003 57.4334 3.82851C57.3963 3.74397 57.329 3.57722 57.2825 3.4551C57.2082 3.26018 57.1873 3.23669 57.0898 3.23669H56.9807L56.9853 3.75571Z" fill="black"/>
<path d="M0.155571 11.8722C0.0859122 12.0483 0 12.8327 0 13.2672C0 14.068 0.157893 14.9581 0.429561 15.6626C1.49069 18.4362 4.14004 20.0497 7.95036 20.2328L8.48673 20.2587L8.47976 18.394L8.46815 16.5292L7.97822 16.5034C7.29557 16.4611 6.1671 16.3625 5.94187 16.3202C5.83971 16.3014 5.60287 16.2545 5.41479 16.2239C3.80103 15.9304 2.48913 15.3198 1.64394 14.4626C1.25153 14.0657 1.04023 13.7674 0.798751 13.2789C0.557268 12.7998 0.466712 12.5368 0.325073 11.8839C0.294888 11.7571 0.199688 11.75 0.155571 11.8722Z" fill="black"/>
<path d="M18.8798 15.4489C18.8682 15.4748 18.8542 15.8811 18.8426 16.3461C18.8194 17.262 18.8124 17.2338 19.0284 17.2338C19.1422 17.2338 19.1491 17.2221 19.1932 16.9332C19.242 16.6232 19.4115 16.2662 19.5926 16.076C19.7552 15.9092 20.0408 15.7636 20.2822 15.7261L20.4401 15.7002L20.4355 17.6612C20.4355 19.0774 20.4239 19.6598 20.3914 19.7561C20.3264 19.9463 20.1383 20.0614 19.8945 20.0614C19.6692 20.0614 19.5996 20.1154 19.6182 20.2798L19.6298 20.3855L20.8674 20.3972L22.105 20.4043L22.0934 20.2446L22.0817 20.0802L21.8287 20.0614C21.5338 20.0379 21.3875 19.951 21.3202 19.7514C21.2853 19.6551 21.276 19.0774 21.276 17.6612L21.2714 15.7002L21.4339 15.7261C21.8147 15.7871 22.17 16.0455 22.3465 16.4001C22.444 16.5903 22.5531 16.9802 22.5531 17.1399C22.5531 17.2361 22.5601 17.2385 22.7156 17.2268L22.8735 17.215L22.8596 16.3367C22.8526 15.8529 22.841 15.4489 22.8294 15.4278C22.8225 15.4137 21.9308 15.402 20.8534 15.402C19.3163 15.4043 18.8914 15.4161 18.8798 15.4489ZM10.6438 15.5992C10.5765 15.6251 10.5579 15.6556 10.5695 15.7355C10.5765 15.8223 10.6067 15.8458 10.7321 15.8834C11.0037 15.9562 10.9968 15.9069 10.9968 18.0346C10.9968 19.0727 10.9828 20.0285 10.9666 20.16L10.9364 20.3996H11.0827C11.2104 20.3996 11.2452 20.3808 11.3195 20.2657C11.424 20.1084 11.4937 20.1013 11.6864 20.2211C12.0114 20.4231 12.2181 20.4888 12.5246 20.47C12.8613 20.4466 13.0424 20.3667 13.263 20.1272C13.6182 19.7491 13.7459 19.3615 13.7459 18.6852C13.7459 18.1286 13.6856 17.889 13.4696 17.5532C13.2351 17.1868 12.9008 17.0083 12.448 17.0083C12.1508 17.0083 11.9534 17.0811 11.7816 17.2479L11.6562 17.3653V15.557L11.1964 15.5617C10.9364 15.5617 10.6926 15.5758 10.6438 15.5992ZM12.585 17.3841C12.65 17.4264 12.7475 17.5321 12.8009 17.6237C13.0772 18.1004 13.0842 19.2723 12.8125 19.8242C12.6198 20.2094 12.246 20.2869 11.9534 19.9956C11.7676 19.8125 11.6701 19.5541 11.6144 19.0985C11.5656 18.6828 11.6144 18.138 11.7282 17.8702C11.8628 17.5508 12.1345 17.3137 12.3737 17.309C12.4224 17.3113 12.5176 17.3465 12.585 17.3841ZM37.1976 15.5828C37.1303 15.5969 37.1117 15.6251 37.1117 15.7284C37.1117 15.8435 37.1233 15.8552 37.2441 15.8764C37.5158 15.9304 37.5088 15.8693 37.5088 18.0746C37.5088 19.1549 37.5018 20.1154 37.4902 20.2117L37.4716 20.3832L37.5993 20.3949C37.7085 20.4066 37.7456 20.3878 37.864 20.2493L37.9987 20.0919L38.1868 20.2281C38.4724 20.4372 38.6047 20.4841 38.9298 20.4841C39.2874 20.4841 39.5567 20.3738 39.7889 20.1295C40.0745 19.8289 40.2255 19.4391 40.2649 18.8942C40.2951 18.4409 40.2394 18.0558 40.0908 17.7387C39.9399 17.4146 39.7936 17.2549 39.5057 17.1164C39.0784 16.9097 38.4724 16.999 38.2495 17.2949L38.1705 17.4052L38.1659 16.4776V15.5546L37.7247 15.5593C37.4809 15.564 37.2418 15.5758 37.1976 15.5828ZM39.0459 17.3536C39.3733 17.525 39.5242 17.9477 39.5242 18.711C39.5242 19.6692 39.2595 20.207 38.8114 20.16C38.5258 20.1295 38.2936 19.8735 38.2007 19.486C38.1287 19.1972 38.1287 18.2272 38.2007 17.9994C38.3633 17.4992 38.751 17.2009 39.0459 17.3536ZM40.9244 15.6673C40.8269 15.7636 40.8083 15.8036 40.8083 15.9656C40.8083 16.2169 40.9174 16.3555 41.145 16.386C41.4352 16.4236 41.6395 16.2521 41.6395 15.975C41.6372 15.6016 41.1914 15.4114 40.9244 15.6673ZM42.3593 15.5992C42.292 15.6251 42.2734 15.6556 42.285 15.7355C42.292 15.82 42.3222 15.8458 42.436 15.8717C42.7216 15.9398 42.7123 15.8364 42.7216 17.8961C42.7285 18.9036 42.7216 19.7843 42.71 19.85C42.6798 20.0332 42.6055 20.106 42.4244 20.1295C42.2688 20.153 42.2595 20.16 42.2479 20.2751L42.2363 20.4019H43.8663L43.8547 20.2751C43.8431 20.1694 43.8291 20.1483 43.7107 20.1342C43.4994 20.1037 43.4507 20.0544 43.4089 19.8336C43.3856 19.7115 43.3717 18.812 43.3717 17.5955V15.5593L42.912 15.564C42.6542 15.5617 42.4104 15.5758 42.3593 15.5992ZM29.2171 15.618C29.2032 15.6321 29.1916 15.6861 29.1916 15.7355C29.1916 15.8341 29.3077 15.8998 29.4888 15.8998C29.5538 15.8998 29.6281 15.9374 29.6838 15.9985L29.7744 16.0971V17.9125C29.7744 19.5565 29.7674 19.7444 29.707 19.8547C29.6281 20.0027 29.4702 20.1225 29.3216 20.1413C29.2241 20.153 29.2078 20.1671 29.2078 20.2681V20.3832L29.9555 20.3949L30.6985 20.4019V20.2681C30.6985 20.146 30.6869 20.1342 30.5963 20.1342C30.4501 20.1342 30.2597 20.0074 30.1807 19.8594C30.1203 19.7444 30.1134 19.5847 30.1018 18.037C30.0948 17.1023 30.0971 16.3461 30.1064 16.3578C30.118 16.3696 30.1621 16.4987 30.2016 16.6443C30.2434 16.7923 30.3293 17.0905 30.3943 17.3113C30.5336 17.7834 30.6312 18.1239 30.7194 18.4362C30.8216 18.7838 30.8773 18.9811 30.9609 19.2747C31.005 19.4203 31.0886 19.7209 31.1536 19.9416C31.2186 20.16 31.2813 20.3526 31.2999 20.3738C31.3185 20.3925 31.3904 20.3996 31.4578 20.3925L31.5855 20.3808L31.899 19.3122C32.0685 18.7251 32.224 18.1826 32.2426 18.1098C32.2774 17.983 32.3982 17.5602 32.6002 16.8698C32.6489 16.703 32.7047 16.5105 32.7256 16.4494C32.7441 16.3813 32.7604 17.013 32.7674 18.0135C32.7743 19.1431 32.7627 19.7373 32.7372 19.8359C32.6931 19.9956 32.5677 20.0943 32.368 20.1248C32.2426 20.1483 32.2287 20.1624 32.2287 20.261V20.3761L33.1458 20.3878L34.0584 20.3949V20.261C34.0584 20.1342 34.0514 20.1272 33.926 20.1272C33.7495 20.1272 33.5708 20.0309 33.529 19.9135C33.5057 19.8571 33.4918 19.0515 33.4918 17.9689V16.1159L33.6009 16.0055C33.6752 15.9327 33.7519 15.8952 33.8239 15.8952C34.0119 15.8952 34.0584 15.8599 34.0584 15.719V15.5898L33.3386 15.5969L32.6141 15.6086L32.5236 15.9139C32.4702 16.0807 32.3889 16.3649 32.3355 16.5433C32.2821 16.7218 32.2031 16.9966 32.1544 17.154C32.1103 17.3113 32.0406 17.5438 32.0034 17.6683C31.9686 17.7951 31.9082 17.9924 31.8757 18.1074C31.8386 18.2225 31.7712 18.4574 31.7202 18.6312C31.6714 18.8073 31.6226 18.9365 31.611 18.9294C31.6041 18.9177 31.3812 18.1662 31.1165 17.2596L30.6405 15.611L29.9439 15.5992C29.5561 15.5992 29.2334 15.6063 29.2171 15.618Z" fill="black"/>
<path d="M35.1868 17.0036C34.9639 17.0483 34.6992 17.1986 34.5297 17.37C33.8285 18.091 33.926 19.7467 34.7062 20.2798C34.943 20.4442 35.1961 20.517 35.5282 20.517C36.1853 20.517 36.6218 20.1976 36.8703 19.533C36.9538 19.3122 36.9655 19.2136 36.9678 18.7815C36.9724 18.2624 36.9376 18.091 36.7681 17.7246C36.659 17.4851 36.3919 17.2221 36.1388 17.1023C35.9229 16.9943 35.4446 16.9449 35.1868 17.0036ZM35.7464 17.3277C36.0738 17.4992 36.2433 17.983 36.2433 18.7439C36.2433 19.3733 36.0924 19.9275 35.8765 20.099C35.6652 20.2657 35.3865 20.2657 35.1752 20.099C34.7294 19.7444 34.6807 17.9736 35.1032 17.4898C35.282 17.2855 35.5421 17.2197 35.7464 17.3277ZM45.0505 17.0036C44.5071 17.1516 44.1426 17.6471 44.0474 18.3681C43.9336 19.2065 44.1937 20.005 44.6836 20.3174C44.9367 20.4818 45.1248 20.5264 45.4684 20.5076C45.9746 20.4841 46.3252 20.2399 46.5783 19.742C46.6433 19.6081 46.5969 19.5095 46.4576 19.4931C46.374 19.4813 46.3368 19.5189 46.2161 19.6997C46.1325 19.8219 46.0048 19.9698 45.9259 20.0356C45.7935 20.1413 45.7517 20.153 45.5265 20.153C45.3082 20.153 45.2548 20.1389 45.1387 20.0497C45.0598 19.9886 44.9622 19.8547 44.9088 19.7444C44.8136 19.5377 44.7045 18.92 44.7463 18.8167C44.7649 18.7674 44.9088 18.7603 45.7076 18.7603C46.3043 18.7603 46.6573 18.7462 46.6735 18.7228C46.7153 18.6546 46.6178 18.1004 46.511 17.8303C46.3902 17.5133 46.1534 17.2315 45.8887 17.0976C45.6821 16.9919 45.2618 16.9449 45.0505 17.0036ZM45.6449 17.4193C45.7889 17.5532 45.8748 17.7622 45.9352 18.1098C45.9793 18.347 45.9769 18.3916 45.9305 18.4221C45.8655 18.4597 44.8415 18.4668 44.7811 18.4268C44.7254 18.3916 44.7997 17.8961 44.8856 17.6941C45.0598 17.2972 45.3918 17.1751 45.6449 17.4193ZM41.1264 17.0342C41.001 17.0389 40.8106 17.053 40.7038 17.0694C40.5087 17.0882 40.5041 17.0929 40.5041 17.215C40.5041 17.3301 40.5157 17.3418 40.6666 17.3747C40.9221 17.4311 40.9337 17.4804 40.9499 18.5959C40.9685 19.9205 40.9197 20.1366 40.6109 20.1366C40.4716 20.1366 40.467 20.1413 40.467 20.2704V20.4043H42.0505V20.2704C42.0505 20.1413 42.0459 20.1366 41.9066 20.1366C41.8044 20.1366 41.7371 20.1107 41.6883 20.0567C41.621 19.9816 41.6163 19.8853 41.5977 18.4996L41.5792 17.0271L41.4654 17.0224C41.4073 17.0224 41.2518 17.0248 41.1264 17.0342ZM13.6531 17.1962C13.6531 17.2949 13.6716 17.3137 13.804 17.3489C13.8876 17.3724 13.9781 17.4287 14.0083 17.4757C14.0385 17.5227 14.3102 18.1709 14.6167 18.913L15.167 20.2634L15.0695 20.5335C14.9232 20.9374 14.6887 21.346 14.5493 21.4306C14.3984 21.5269 14.3079 21.5269 14.1523 21.4306C14.0501 21.3648 13.9178 21.3273 13.9178 21.3648C13.9178 21.3695 13.8829 21.4682 13.8435 21.5832C13.7459 21.858 13.7483 21.9191 13.8667 21.9637C14.0223 22.0248 14.3752 22.006 14.5447 21.9285C14.8349 21.7946 15.0764 21.4048 15.427 20.5123C15.4642 20.416 15.5362 20.2446 15.5896 20.1319C15.643 20.0168 15.7544 19.7514 15.8427 19.54C15.9286 19.331 16.0493 19.0515 16.1097 18.9177C16.1701 18.7838 16.2188 18.6687 16.2188 18.6593C16.2188 18.6453 16.2629 18.5419 16.4789 18.0534C16.7273 17.4968 16.8829 17.309 17.0872 17.309C17.1476 17.309 17.1615 17.2831 17.1615 17.1939V17.0788H15.8798V17.1939C15.8798 17.2784 15.8984 17.309 15.9472 17.309C15.982 17.309 16.0749 17.3277 16.1538 17.3512C16.2583 17.3771 16.2931 17.4076 16.2931 17.4687C16.2931 17.5415 16.0168 18.2765 15.8032 18.7768C15.766 18.8613 15.6987 19.0351 15.6476 19.1666C15.5989 19.3005 15.5501 19.4062 15.5385 19.4062C15.5199 19.4062 14.8721 17.8421 14.7815 17.5837C14.7258 17.417 14.7815 17.3559 15.0161 17.3254C15.1902 17.3019 15.2018 17.2949 15.2018 17.1915V17.0812H13.6531V17.1962ZM18.8449 17.7152C18.831 17.7293 18.8194 17.9712 18.8194 18.2531V18.765L19.8573 18.7415V17.7105L19.3627 17.6988C19.0957 17.6965 18.8612 17.7035 18.8449 17.7152ZM21.8356 18.765L22.8735 18.7415V17.7105L21.8356 17.6871V18.765ZM24.8425 17.7152C24.8286 17.7293 24.817 17.9712 24.817 18.2531V18.765L25.8549 18.7415V17.7105L25.3603 17.6988C25.091 17.6965 24.8565 17.7035 24.8425 17.7152ZM27.8216 17.7152C27.8077 17.7293 27.7961 17.9712 27.7961 18.2531V18.765L28.834 18.7415V17.7105L28.3394 17.6988C28.0701 17.6965 27.8379 17.7035 27.8216 17.7152ZM47.4583 17.7434C47.4514 17.7693 47.4467 18.0065 47.4514 18.2695L47.463 18.7415L48.5009 18.765V17.6941H47.9924C47.6069 17.6941 47.4746 17.7035 47.4583 17.7434Z" fill="black"/>
</svg>
