<svg width="39" height="17" viewBox="0 0 39 17" fill="none" xmlns="http://www.w3.org/2000/svg">
<path d="M14.6314 5.52475C14.5576 5.50325 14.4838 5.48318 14.41 5.46454C14.0725 5.37996 13.7246 5.32119 13.366 5.29252C13.2907 5.28679 13.2169 5.27962 13.1401 5.27675C13.0377 5.27245 12.9337 5.26958 12.8298 5.26958C12.7258 5.26958 12.6219 5.27245 12.5195 5.27675C12.5391 5.47028 12.5496 5.66667 12.5496 5.86592C12.5496 6.00641 12.5421 6.14403 12.533 6.28164C12.6309 6.27591 12.7304 6.27304 12.8298 6.27304C12.9292 6.27304 13.0286 6.27591 13.1265 6.28164C13.2034 6.28594 13.2787 6.29024 13.354 6.29884C13.7291 6.33468 14.0906 6.41209 14.4371 6.52104C14.5184 6.54684 14.5983 6.57408 14.6781 6.60418C16.3005 7.20626 17.5221 8.57383 17.849 10.2396C18.2 10.36 18.5706 10.4431 18.9532 10.4833C18.6805 8.1323 16.9422 6.1985 14.6314 5.52475Z" fill="black"/>
<path d="M19.7787 11.1341C19.7787 10.9936 19.7847 10.856 19.7952 10.7169C19.6973 10.7227 19.5979 10.7255 19.4985 10.7255C19.3991 10.7255 19.2997 10.7227 19.2017 10.7169C19.1249 10.7126 19.0496 10.7069 18.9743 10.6997C18.5992 10.6639 18.2377 10.5865 17.8912 10.4775C17.8098 10.4517 17.73 10.4245 17.6502 10.3944C16.0278 9.79231 14.8061 8.42474 14.4793 6.759C14.1283 6.63859 13.7577 6.55544 13.3751 6.51531C13.6492 8.8634 15.3861 10.7986 17.6984 11.4724C17.7722 11.4939 17.846 11.514 17.9198 11.5326C18.2572 11.6172 18.6052 11.6759 18.9637 11.7046C19.039 11.7103 19.1129 11.7175 19.1897 11.7204C19.2921 11.7247 19.3961 11.7275 19.5 11.7275C19.6039 11.7275 19.7079 11.7247 19.8103 11.7204C19.7907 11.5283 19.7787 11.3319 19.7787 11.1341Z" fill="black"/>
<path d="M12.295 5.29252C12.2875 5.22084 12.2784 5.14917 12.2679 5.07893C11.8627 2.21477 9.28076 0 6.16257 0C2.76419 0 0 2.63049 0 5.86449C0 9.09849 2.76419 11.729 6.16257 11.729C6.26651 11.729 6.37045 11.7261 6.47289 11.7218C6.4533 11.5283 6.44276 11.3319 6.44276 11.1341C6.44276 10.9936 6.45029 10.856 6.45933 10.7169C6.36141 10.7227 6.26199 10.7255 6.16257 10.7255C3.34565 10.7255 1.05446 8.54516 1.05446 5.86449C1.05446 3.18383 3.34565 1.00346 6.16257 1.00346C8.75956 1.00346 10.9076 2.85699 11.2285 5.24808C11.2375 5.31976 11.2466 5.39287 11.2526 5.46454C11.2647 5.59642 11.2707 5.72974 11.2707 5.86449C11.2707 6.08669 11.2541 6.30601 11.2225 6.51961C11.2104 6.59988 11.1969 6.68016 11.1818 6.759C10.8549 8.42474 9.63326 9.79231 8.01089 10.3944C7.97022 10.6352 7.94913 10.8818 7.94913 11.1326C7.94913 11.2473 7.95516 11.3606 7.96419 11.4724C10.2765 10.7986 12.0133 8.86483 12.2875 6.51531C12.2965 6.4422 12.3025 6.36909 12.3086 6.29598C12.3191 6.15263 12.3267 6.00928 12.3267 5.86306C12.3251 5.67097 12.3146 5.48031 12.295 5.29252Z" fill="black"/>
<path d="M17.8972 11.7505C17.5779 14.1401 15.4283 15.9951 12.8313 15.9951C10.2343 15.9951 8.08621 14.1416 7.76535 11.7505C7.75632 11.6788 7.74728 11.6057 7.74125 11.534C7.7292 11.4021 7.72318 11.2688 7.72318 11.1341C7.72318 10.9119 7.73975 10.6926 7.77138 10.479C7.78343 10.3987 7.79699 10.3184 7.81205 10.2396C8.13893 8.57383 9.3606 7.20626 10.983 6.60418C11.0236 6.36335 11.0447 6.11679 11.0447 5.86592C11.0447 5.75124 11.0387 5.638 11.0297 5.52618C8.71738 6.19993 6.98053 8.13374 6.70637 10.4833C6.69734 10.5564 6.69131 10.6295 6.68528 10.7026C6.67474 10.8459 6.66721 10.9893 6.66721 11.1355C6.66721 11.329 6.67775 11.5197 6.69733 11.7075C6.70487 11.7792 6.7139 11.8508 6.72445 11.9211C7.12966 14.7838 9.71159 17 12.8298 17C15.948 17 18.5299 14.7852 18.9351 11.9211C18.5811 11.8895 18.2331 11.8336 17.8972 11.7505Z" fill="black"/>
<path d="M31.2331 11.7505C30.9138 14.1401 28.7642 15.9951 26.1687 15.9951C23.5717 15.9951 21.4221 14.1416 21.1028 11.7505C21.0937 11.6788 21.0847 11.6057 21.0787 11.534C21.0666 11.4021 21.0606 11.2688 21.0606 11.1341C21.0606 10.9119 21.0772 10.6926 21.1088 10.4775C21.1209 10.3973 21.1344 10.317 21.1495 10.2381C21.4764 8.57239 22.698 7.20482 24.3204 6.60275C24.3611 6.36192 24.3822 6.11536 24.3822 5.86449C24.3822 5.74981 24.3761 5.63656 24.3671 5.52475C22.0563 6.1985 20.318 8.13231 20.0438 10.4818C20.0348 10.5549 20.0287 10.628 20.0227 10.7012C20.0122 10.8445 20.0046 10.9879 20.0046 11.1341C20.0046 11.3276 20.0152 11.5183 20.0348 11.706C20.0423 11.7777 20.0513 11.8494 20.0619 11.9196C20.4671 14.7824 23.049 16.9986 26.1672 16.9986C29.2854 16.9986 31.8673 14.7838 32.2725 11.9196C31.917 11.8895 31.5691 11.8336 31.2331 11.7505Z" fill="black"/>
<path d="M25.6324 5.29252C25.6249 5.22084 25.6159 5.14917 25.6053 5.07893C25.2001 2.21621 22.6167 0 19.5 0C16.3818 0 13.7999 2.21477 13.3947 5.07893C13.7502 5.10903 14.0981 5.16494 14.4341 5.24808C14.7534 2.85699 16.903 1.00346 19.5 1.00346C22.097 1.00346 24.2451 2.85699 24.5659 5.24808C24.575 5.31976 24.584 5.39287 24.59 5.46454C24.6021 5.59642 24.6081 5.72974 24.6081 5.86449C24.6081 6.08669 24.5915 6.30601 24.5599 6.51961C24.5479 6.59988 24.5343 6.68016 24.5192 6.759C24.1924 8.42474 22.9707 9.79231 21.3483 10.3944C21.3076 10.6352 21.2866 10.8818 21.2866 11.1326C21.2866 11.2473 21.2926 11.3606 21.3016 11.4724C23.6124 10.7986 25.3508 8.86483 25.6249 6.51531C25.634 6.4422 25.64 6.36909 25.646 6.29598C25.6565 6.15263 25.6641 6.00928 25.6641 5.86306C25.6626 5.67097 25.652 5.48031 25.6324 5.29252Z" fill="black"/>
<path d="M27.9673 5.52475C27.8935 5.50325 27.8197 5.48318 27.7459 5.46454C27.4085 5.37996 27.0605 5.32119 26.702 5.29252C26.6266 5.28679 26.5528 5.27962 26.476 5.27675C26.3736 5.27245 26.2696 5.26958 26.1657 5.26958C26.0618 5.26958 25.9578 5.27245 25.8554 5.27675C25.875 5.47028 25.8855 5.66667 25.8855 5.86592C25.8855 6.00641 25.8795 6.14403 25.8689 6.28164C25.9669 6.27591 26.0663 6.27304 26.1657 6.27304C26.2651 6.27304 26.363 6.27591 26.4625 6.28164C26.5393 6.28594 26.6146 6.29024 26.6899 6.29884C27.065 6.33468 27.4265 6.41209 27.773 6.52104C27.8543 6.54684 27.9342 6.57408 28.014 6.60418C29.6364 7.20626 30.8581 8.57383 31.1849 10.2396C31.5359 10.36 31.9065 10.4431 32.2891 10.4833C32.0165 8.1323 30.2796 6.1985 27.9673 5.52475Z" fill="black"/>
<path d="M32.8359 0C29.7177 0 27.1358 2.21621 26.7306 5.07893C27.0861 5.10903 27.4341 5.16494 27.77 5.24808C28.0893 2.85699 30.2389 1.00346 32.8359 1.00346C35.6528 1.00346 37.944 3.18383 37.944 5.86449C37.944 8.54516 35.6528 10.7255 32.8359 10.7255C32.7365 10.7255 32.6371 10.7227 32.5392 10.7169C32.4623 10.7126 32.387 10.7069 32.3117 10.6997C31.9366 10.6639 31.5751 10.5865 31.2286 10.4775C31.1473 10.4517 31.0674 10.4245 30.9876 10.3944C29.3652 9.79231 28.1436 8.42474 27.8167 6.759C27.4657 6.63859 27.0951 6.55544 26.7125 6.51531C26.9867 8.8634 28.7235 10.7986 31.0358 11.4724C31.1096 11.4939 31.1834 11.514 31.2572 11.5326C31.5947 11.6172 31.9426 11.6759 32.3012 11.7046C32.3765 11.7103 32.4503 11.7175 32.5271 11.7204C32.6295 11.7247 32.7335 11.7275 32.8374 11.7275C36.2358 11.7275 39 9.09706 39 5.86306C39 2.62906 36.2343 0 32.8359 0Z" fill="black"/>
</svg>
