<svg width="58" height="58" viewBox="0 0 58 58" fill="none" xmlns="http://www.w3.org/2000/svg">
<g clip-path="url(#clip0)">
<path d="M57.5789 16.8842V41.1239C57.5789 41.5454 57.3681 41.9751 56.9382 42.2148L30.7117 57.1652C29.7169 57.7272 28.4861 57.7355 27.4914 57.1652L1.06257 42.2065C0.632631 41.9669 0.421875 41.5454 0.421875 41.1239V16.876C0.421875 17.2975 0.632631 17.719 1.06257 17.9669L20.4858 28.9586L27.4914 32.9256C28.4861 33.4875 29.7169 33.4875 30.7117 32.9173L37.5149 29.0413L56.9382 17.9751C57.3681 17.7355 57.5789 17.3057 57.5789 16.8842Z" stroke="black" stroke-opacity="0.6" stroke-miterlimit="10"/>
<path d="M57.5789 16.8758V16.8841C57.5789 17.3056 57.3681 17.7353 56.9382 17.975L37.5149 29.0411L30.7117 32.9172C29.7169 33.4874 28.4861 33.4874 27.4914 32.9254L20.4858 28.9585L1.06257 17.9668C0.632631 17.7188 0.421875 17.2973 0.421875 16.8758C0.421875 16.4461 0.632631 16.0246 1.06257 15.7849L27.289 0.842787C28.2838 0.272539 29.5146 0.272539 30.5094 0.834523L56.9382 15.7849C57.3681 16.0329 57.5789 16.4461 57.5789 16.8758Z" stroke="black" stroke-opacity="0.6" stroke-miterlimit="10"/>
<path d="M43.1374 35.3551V42.2394C43.1374 42.5039 42.9941 42.7435 42.7665 42.8758L39.993 44.4625C39.6052 44.6857 39.1162 44.413 39.1162 43.9667V37.0824C39.1162 36.8179 39.2595 36.5782 39.4871 36.446L42.2607 34.8592C42.6485 34.6361 43.1374 34.9088 43.1374 35.3551Z" fill="black" fill-opacity="0.6"/>
<path d="M50.6238 31.0825V37.9668C50.6238 38.2313 50.4805 38.4709 50.2528 38.6032L47.4793 40.19C47.0915 40.4131 46.6025 40.1404 46.6025 39.6941V32.8098C46.6025 32.5453 46.7459 32.3057 46.9735 32.1734L49.747 30.5866C50.1348 30.3635 50.6238 30.6445 50.6238 31.0825Z" fill="black" fill-opacity="0.6"/>
<path d="M34.413 17.5533C34.1011 18.388 33.3845 19.1401 32.3223 19.7516C29.279 21.4789 24.3136 21.4789 21.2534 19.7434C18.2017 18.0161 18.1848 15.2062 21.2281 13.4707C24.2714 11.7351 29.2284 11.7351 32.2801 13.4624C33.3592 14.074 34.0842 14.826 34.4046 15.6607H33.3929L33.4941 15.9913C33.2496 15.1897 32.5836 14.4541 31.5636 13.8756C28.8996 12.3715 24.5918 12.3715 21.9447 13.8756C19.306 15.3797 19.3144 17.8343 21.97 19.3384C24.6339 20.8426 28.9586 20.8426 31.5973 19.3384C32.6174 18.7599 33.2665 18.0326 33.4941 17.2227L33.4098 17.5533H34.413Z" fill="black" fill-opacity="0.6"/>
<path d="M34.5741 16.8589C34.5741 16.9002 34.5741 16.9333 34.5654 16.9746L34.5566 16.9829C34.5654 16.9415 34.5654 16.9002 34.5741 16.8589Z" fill="black" fill-opacity="0.6"/>
<path d="M45.5321 15.9334C45.2202 15.7516 44.7987 15.6606 44.3603 15.6606H33.3926L33.4937 15.9912C33.6033 16.3962 33.6118 16.8177 33.4937 17.2226L33.4094 17.5532H44.3772C44.824 17.5532 45.2455 17.454 45.5658 17.2722C45.8778 17.0987 46.0379 16.8507 46.0379 16.6028C46.0379 16.3549 45.8693 16.1235 45.5321 15.9334ZM34.5728 16.859C34.5728 16.9003 34.5728 16.9334 34.5644 16.9747L34.556 16.983C34.5644 16.9416 34.5644 16.9003 34.5728 16.859Z" fill="black" fill-opacity="0.6"/>
</g>
<defs>
<clipPath id="clip0">
<rect width="58" height="58" fill="white"/>
</clipPath>
</defs>
</svg>
