<svg width="87" height="15" viewBox="0 0 87 15" fill="none" xmlns="http://www.w3.org/2000/svg">
<path d="M5.71109 10.1589C5.82947 10.4563 5.79194 10.8374 5.73419 11.0684C5.63313 11.4784 5.35595 11.897 4.53596 11.897C3.76793 11.897 3.30019 11.4524 3.30019 10.7825V9.59007H0V10.5371C0 13.28 2.15682 14.1087 4.46955 14.1087C6.69277 14.1087 8.52333 13.3522 8.81495 11.2993C8.96509 10.2368 8.85537 9.54098 8.8034 9.28401C8.28368 6.70853 3.61779 5.94051 3.26843 4.49975C3.21992 4.28724 3.21588 4.06694 3.25688 3.85299C3.3435 3.45743 3.61202 3.02722 4.38004 3.02722C5.10187 3.02722 5.52053 3.47186 5.52053 4.14172V4.90397H8.58974V4.03778C8.58974 1.35836 6.18461 0.939697 4.44645 0.939697C2.25787 0.939697 0.470631 1.66441 0.144365 3.67109C0.0577461 4.21968 0.0433096 4.71052 0.173238 5.3284C0.70739 7.84036 5.07588 8.56796 5.71109 10.1589Z" fill="black"/>
<path d="M13.1657 1.33223L10.8848 13.6293H14.2081L15.8914 2.46983H15.9606L17.5978 13.6293H20.9037L18.6372 1.32935L13.1657 1.33223ZM31.7455 1.33223L30.2297 10.7333H30.1575L28.6446 1.33223H23.6293L23.3579 13.6293H26.4358L26.5109 2.57377H26.5802L28.633 13.6293H31.7542L33.81 2.57666H33.8764L33.9543 13.6293H37.0293L36.7579 1.32935L31.7455 1.33223Z" fill="black"/>
<path d="M45.6916 10.1357C45.8099 10.4331 45.7724 10.8142 45.7147 11.0452C45.6136 11.4552 45.3364 11.8738 44.5164 11.8738C43.7484 11.8738 43.2807 11.4292 43.2807 10.7593V9.56687H39.9805V10.5139C39.9805 13.2568 42.1373 14.0855 44.45 14.0855C46.6732 14.0855 48.5038 13.329 48.7954 11.2762C48.9456 10.2136 48.8358 9.51779 48.7839 9.26082C48.2641 6.68534 43.5983 5.91732 43.2489 4.47655C43.2004 4.26405 43.1964 4.04374 43.2373 3.8298C43.324 3.43423 43.5925 3.00403 44.3605 3.00403C45.0823 3.00403 45.501 3.44867 45.501 4.11853V4.88077H48.5702V4.01458C48.5702 1.33516 46.1651 0.916504 44.4269 0.916504C42.2383 0.916504 40.4511 1.64122 40.1248 3.6479C40.0382 4.19648 40.0238 4.68733 40.1537 5.30521C40.6879 7.81716 45.0564 8.54477 45.6916 10.1357Z" fill="black"/>
<path d="M56.014 11.7872C56.8686 11.7872 57.1313 11.1982 57.192 10.8979C57.218 10.7651 57.2208 10.5861 57.2208 10.4273V1.33224H60.3334V10.1472C60.3339 10.4169 60.3244 10.6865 60.3045 10.9556C60.0879 13.251 58.2747 13.996 56.014 13.996C53.7503 13.996 51.9371 13.251 51.7205 10.9556C51.7119 10.8344 51.6888 10.3724 51.6917 10.1472V1.32935H54.8042V10.4244C54.8013 10.5861 54.8071 10.7651 54.833 10.8979C54.8908 11.1982 55.1564 11.7872 56.014 11.7872ZM71.051 1.33224L71.2185 10.9845H71.1521L68.3225 1.33224H63.7606V13.4993H66.7836L66.6161 3.51216H66.6825L69.7171 13.4993H74.0971V1.33224H71.051ZM81.6619 11.6601C82.5512 11.6601 82.863 11.0971 82.9179 10.7651C82.9438 10.6294 82.9467 10.4561 82.9467 10.3031V8.51297H81.685V6.72284H86.0419V10.0201C86.0419 10.2511 86.0362 10.4186 85.9986 10.8286C85.7965 13.0691 83.8534 13.8689 81.6734 13.8689C79.4935 13.8689 77.5533 13.0691 77.3483 10.8286C77.3136 10.4186 77.3049 10.2511 77.3049 10.0201V4.84609C77.3049 4.62666 77.3338 4.23976 77.3569 4.03765C77.6312 1.73646 79.4935 0.997314 81.6734 0.997314C83.8534 0.997314 85.7648 1.73069 85.99 4.03476C86.0304 4.42743 86.0188 4.84321 86.0188 4.84321V5.25609H82.9179V4.56602C82.9179 4.56602 82.9179 4.27729 82.8803 4.09828C82.8226 3.82687 82.5916 3.20322 81.6503 3.20322C80.7553 3.20322 80.4925 3.79511 80.4261 4.09828C80.3886 4.25997 80.3741 4.4794 80.3741 4.67863V10.3002C80.3741 10.4561 80.3799 10.6294 80.403 10.768C80.4608 11.0971 80.7726 11.6601 81.6619 11.6601Z" fill="black"/>
</svg>
