<svg width="85" height="13" viewBox="0 0 85 13" fill="none" xmlns="http://www.w3.org/2000/svg">
<path d="M76.5025 12.8191V7.0239C76.5025 5.35849 77.6511 4.23871 79.3268 4.23871C80.7678 4.23871 81.4059 4.90452 81.4059 6.46291V12.8191H82.2228V6.37419C82.2228 4.42156 81.2792 3.47262 79.3222 3.47262C78.0311 3.47262 77.039 4.07606 76.4353 5.21927L76.3355 5.40666L76.2852 5.20185C75.9909 4.0866 75.095 3.47262 73.7548 3.47262C73.3426 3.47262 72.9619 3.53864 72.6167 3.66352C71.2015 4.12964 70.7822 5.18545 70.7822 5.18545V3.81372H69.8495V12.8191H70.7822V7.09373C70.7822 5.41398 71.9065 4.23871 73.567 4.23871C74.9194 4.23871 75.5689 5.02295 75.5689 6.56787V12.8191H76.5025ZM57.0677 4.18937C58.7721 4.18937 59.8857 5.48337 59.9758 7.49178L54.0729 7.49105C54.1793 5.51339 55.3559 4.18938 57.0677 4.18938V4.18937ZM59.8738 10.0474C59.6306 11.3177 58.494 12.1055 57.0513 12.1055C55.1679 12.1055 53.9294 10.613 53.9294 8.37397V8.3157H60.8173V7.96947C60.8173 5.0903 59.4526 3.45183 57.0421 3.45183C54.581 3.45183 53.1294 5.22718 53.1294 8.18394C53.1294 11.1032 54.5929 12.8678 57.0439 12.8678C59.058 12.8678 60.5094 11.7793 60.7704 10.0474H59.8738ZM50.405 7.61915C50.405 5.46068 51.388 4.39067 53.2566 4.39067H53.3229V3.58183H53.2743C52.3271 3.58183 51.6016 3.82485 51.0647 4.36607C50.6871 4.68946 50.4262 5.13348 50.2878 5.41017V5.17491V3.81372H49.4713V12.8191H50.405V7.61915ZM13.4283 11.253C11.7629 11.253 10.8311 10.1183 10.8311 7.99173C10.8311 5.86664 11.7629 4.71581 13.4283 4.71581C15.0765 4.71581 16.0068 5.84921 16.0068 7.99173C16.0068 10.1183 15.0765 11.253 13.4283 11.253ZM13.4107 3.01425C10.5266 3.01425 8.78917 4.85621 8.78917 7.99173C8.78917 11.1284 10.545 12.9532 13.4283 12.9532C16.2944 12.9532 18.0512 11.1107 18.0512 7.99173C18.0512 4.87436 16.2944 3.01425 13.4107 3.01425ZM62.9431 8.98956C63.0362 8.90421 63.1437 8.82443 63.2603 8.75006C63.4023 8.66954 64.1794 8.26637 65.4537 8.18116C66.4019 8.11499 67.1514 8.02144 67.717 7.80507L67.828 7.76349L67.8408 8.67525L67.8377 8.67715C67.8377 8.67715 67.8385 8.68652 67.8408 8.70438L67.8434 8.94374L67.848 9.14914C67.8462 9.15572 67.8462 9.16202 67.8462 9.16744C67.8456 9.20506 67.8425 9.23946 67.8408 9.27533C67.8274 9.50444 67.7852 9.82754 67.6671 10.1711C67.3889 10.9208 66.7327 11.7248 65.2315 11.9831C65.0096 12.015 64.7766 12.0323 64.533 12.0323C63.2282 12.0323 62.3847 11.3284 62.3847 10.2389C62.3847 9.94905 62.4502 9.68656 62.5787 9.4491C62.59 9.42861 62.6006 9.40797 62.6123 9.39025C62.6214 9.37561 62.6317 9.36112 62.6404 9.34589C62.7029 9.25015 62.775 9.16041 62.8518 9.07828C62.864 9.06657 62.8758 9.05456 62.8875 9.04256C62.9053 9.02485 62.9243 9.00742 62.9431 8.98956V8.98956ZM61.4559 10.2575C61.4559 11.8217 62.5772 12.7946 64.3832 12.7946C65.6667 12.7946 66.7953 12.2869 67.7041 11.2849L67.8644 11.1256V11.4795C67.8644 12.1446 68.098 12.7151 68.6811 12.8191V6.09984C68.6811 4.36124 67.572 3.45402 65.4393 3.45402C63.3572 3.45402 61.9946 4.62124 61.9172 6.23834H62.7951C62.8952 4.96762 63.7698 4.21528 65.4694 4.21528C67.1452 4.21528 67.8297 4.7997 67.8297 6.25869C67.8297 7.05054 67.569 7.21099 66.8347 7.37042C66.2953 7.48446 65.5118 7.55795 65.2416 7.58123C65.2152 7.5824 65.1886 7.5846 65.1637 7.58738C65.1525 7.58796 65.1449 7.58796 65.1449 7.58796V7.58913C64.3274 7.65662 63.5579 7.7531 62.8736 8.06097C61.9455 8.48611 61.4559 9.24473 61.4559 10.2575V10.2575ZM23.2714 11.2168C21.7493 11.2168 20.7995 10.0647 20.7995 8.04531C20.7995 5.91978 21.7493 4.75095 23.2714 4.75095C24.9009 4.75095 25.7788 5.8315 25.7788 7.92116C25.7788 10.0829 24.884 11.2168 23.2714 11.2168ZM25.7767 4.46738C25.0766 3.49238 24.0941 3.01425 22.822 3.01425C20.512 3.01425 18.7845 4.9275 18.7845 8.02774C18.7845 11.0393 20.4728 12.9532 22.835 12.9532C24.072 12.9532 24.9592 12.4738 25.7767 11.4284V12.8191H27.645V0.00331306H25.7767V4.46738ZM5.10975 7.07089L3.91035 6.80548C2.88814 6.57519 2.33307 6.29221 2.33307 5.61879C2.33307 5.05135 2.87053 4.65579 3.92737 4.65579C5.16318 4.65579 5.86212 5.19863 5.91511 6.1221H7.86821C7.86821 4.27457 6.39824 3.06241 3.99902 3.06241C1.6707 3.06241 0.309969 4.20796 0.309969 5.94467C0.309969 7.46821 1.27726 8.12905 3.24768 8.60718L4.66229 8.95443C5.59317 9.18573 6.13062 9.4128 6.13062 10.085C6.13062 10.8119 5.44974 11.3638 4.2317 11.3638C2.83559 11.3638 2.10083 10.856 2.0101 9.70105H0.0410156C0.0410156 11.7793 1.47383 12.9922 4.05245 12.9922C6.66897 12.9922 8.13656 11.7862 8.13656 9.85403C8.13656 8.13622 7.11613 7.53233 5.10975 7.07089ZM34.6261 9.14328C34.6261 10.4723 33.5064 11.3583 32.0724 11.3583C31.0876 11.3583 30.546 10.8617 30.546 10.0118C30.546 9.25015 30.9736 8.79046 31.9054 8.61245C32.8362 8.43428 33.8094 8.40046 34.6261 7.97416V9.14328ZM32.8527 3.01425C30.4161 3.01425 29.022 4.20064 29.022 6.02592V6.23834H30.8905V6.11375C30.8905 5.17638 31.5391 4.64452 32.7747 4.64452C34.0829 4.64452 34.7027 5.05135 34.7027 5.95477C34.7027 6.82348 34.269 6.84061 32.6044 7.0542C30.0786 7.3713 28.5907 7.97416 28.5907 10.1891C28.5907 11.8892 29.7004 12.9532 31.6344 12.9532C32.8695 12.9532 33.9988 12.4026 34.7696 11.4117C34.7864 12.3688 35.3375 12.8281 36.5557 12.8281C36.5806 12.8281 36.6102 12.826 36.6102 12.826V5.77821C36.6102 3.95323 35.3596 3.01425 32.8527 3.01425ZM48.3033 11.951C48.0705 12.0238 47.6643 12.103 47.3931 12.103C46.7192 12.103 46.6696 11.6828 46.6696 11.0429V4.50559H48.3033V3.81372H46.6696V0.34998H45.7361V11.0429C45.7361 12.3524 46.0518 12.7946 47.0904 12.7946C47.4565 12.7946 47.8364 12.7348 48.3033 12.6209V11.951ZM41.9259 7.82337C41.7591 7.78282 41.5994 7.74798 41.4453 7.71123C39.8451 7.34129 38.8787 7.12052 38.8787 5.84438C38.8787 4.8666 39.7147 4.24207 41.0103 4.24207C42.4757 4.24207 43.3675 4.96762 43.4708 6.23834H44.399C44.2449 4.50559 43.0213 3.48067 41.0278 3.48067C39.1863 3.48067 37.949 4.4848 37.949 5.994C37.949 7.48388 38.949 7.97738 41.1882 8.51334L41.2387 8.53134C42.8411 8.90963 43.7241 9.12996 43.7241 10.3004C43.7241 11.3953 42.7269 12.1248 41.1873 12.1248C39.8088 12.1248 38.7507 11.2019 38.6876 10.0474H37.7588C37.85 11.7793 39.2074 12.8844 41.24 12.8844C43.2807 12.8844 44.653 11.8446 44.653 10.3282C44.653 8.984 43.9381 8.31146 41.9259 7.82337Z" fill="black"/>
<path d="M83.8582 4.49223C84.0469 4.49223 84.2337 4.48579 84.2337 4.27571C84.2337 4.10369 84.0879 4.06314 83.9362 4.06314H83.6541V4.49223H83.8582ZM83.6541 5.17019H83.5012V3.93373H83.9812C84.2629 3.93373 84.3871 4.05436 84.3871 4.27571C84.3871 4.49472 84.2431 4.59222 84.0734 4.62135L84.446 5.17019H84.2656L83.9136 4.62135H83.6541V5.17019ZM82.9799 4.55181C82.9799 5.0642 83.3699 5.46972 83.8931 5.46972C84.4167 5.46972 84.8064 5.0642 84.8064 4.55181C84.8064 4.0403 84.4167 3.63523 83.8931 3.63523C83.3699 3.63523 82.9799 4.0403 82.9799 4.55181ZM84.9755 4.55181C84.9755 5.15365 84.5045 5.62183 83.8931 5.62183C83.282 5.62183 82.8105 5.15365 82.8105 4.55181C82.8105 3.95071 83.282 3.48195 83.8931 3.48195C84.5045 3.48195 84.9755 3.95071 84.9755 4.55181Z" fill="black"/>
</svg>
