<svg width="65" height="16" viewBox="0 0 65 16" fill="none" xmlns="http://www.w3.org/2000/svg">
<g clip-path="url(#clip0)">
<path d="M47.4966 3.56854C47.7895 3.56854 48.0382 3.46497 48.2438 3.25782C48.4435 3.05067 48.5439 2.80257 48.5439 2.51352C48.5439 2.22568 48.4399 1.97758 48.2343 1.76922C48.0358 1.56207 47.7955 1.4585 47.5157 1.4585C47.2216 1.4585 46.9729 1.55966 46.7673 1.75959C46.5556 1.96072 46.4492 2.21243 46.4492 2.51232C46.4492 2.80136 46.552 3.04946 46.7577 3.25661C46.9574 3.46497 47.2037 3.56854 47.4966 3.56854Z" fill="black"/>
<path d="M21.5471 11.0092L18.8163 1.55247H15.1135V2.1655H15.4686C15.7555 2.1655 15.9732 2.19079 16.1226 2.24017C16.3785 2.32206 16.5435 2.51597 16.6176 2.82308C16.6547 2.96158 16.6738 3.25424 16.6738 3.69865V11.1501C16.6738 11.8462 16.6511 12.34 16.608 12.629C16.5459 13.012 16.4084 13.2975 16.1967 13.4865C15.9732 13.6877 15.7137 13.7876 15.4208 13.7876H15.1123V14.4091H19.0674V13.7876H18.8151C18.1229 13.7876 17.6841 13.4528 17.4964 12.7808C17.4342 12.5363 17.4031 11.9931 17.4031 11.1513V2.72071L20.7688 14.4103H21.3582L24.7335 2.72071V11.8956C24.7335 12.3291 24.7143 12.6832 24.6773 12.9602C24.6522 13.1927 24.5745 13.3709 24.4441 13.4974C24.2445 13.6913 23.9049 13.7876 23.4243 13.7876H23.2652V14.4091H28.0621V13.7876H27.8002C27.1391 13.7876 26.7397 13.5913 26.6034 13.1951C26.5353 12.9807 26.5006 12.5483 26.5006 11.8956V4.06719C26.5006 3.63362 26.5185 3.27472 26.5568 2.9929C26.5819 2.76647 26.6596 2.59064 26.7899 2.46538C26.9836 2.26546 27.3196 2.16429 27.8002 2.16429H28.0621V1.55127H24.3305L21.5471 11.0092Z" fill="black"/>
<path d="M32.1503 5.26294C30.9535 5.26294 29.9838 5.73746 29.2425 6.68529C28.5945 7.5139 28.2705 8.60987 28.2705 9.97201C28.2705 11.3293 28.5945 12.4241 29.2425 13.2599C29.9779 14.209 30.9284 14.6811 32.0953 14.6811C33.3292 14.6811 34.3144 14.2078 35.0497 13.2599C35.6977 12.4241 36.0217 11.3221 36.0217 9.95274C36.0217 8.60264 35.6977 7.51269 35.0497 6.68409C34.3072 5.73746 33.3411 5.26294 32.1503 5.26294ZM32.1503 14.062C31.4652 14.062 30.9654 13.7417 30.6534 13.101C30.3043 12.3723 30.1297 11.298 30.1297 9.87807C30.1297 8.16426 30.4131 7.01288 30.981 6.42154C31.3241 6.06384 31.7139 5.88439 32.1503 5.88439C32.4313 5.88439 32.6895 5.95786 32.9263 6.10118C33.2754 6.32158 33.5408 6.63592 33.7213 7.0442C34.0143 7.70298 34.1613 8.66768 34.1613 9.93467C34.1613 12.6866 33.4906 14.062 32.1503 14.062Z" fill="black"/>
<path d="M41.4917 5.34856C40.8676 5.34856 40.32 5.54006 39.8466 5.92305C39.5907 6.1302 39.3827 6.41924 39.2201 6.79019V1.41992L36.4893 1.5524V2.14615H36.6291C36.9902 2.14615 37.2377 2.22444 37.368 2.38101C37.5235 2.54962 37.6012 2.98319 37.6012 3.68052V12.5061C37.6012 13.2974 37.5737 13.8213 37.5175 14.079C37.5103 14.1163 37.4768 14.2271 37.4147 14.4078H38.0507C38.1942 14.1754 38.3293 13.9718 38.4537 13.7948C38.59 13.5949 38.7143 13.4949 38.8267 13.4949C38.92 13.4949 39.0288 13.5443 39.1543 13.6454C39.4795 13.9152 39.6899 14.0814 39.7904 14.1452C40.2638 14.4524 40.7851 14.6065 41.3519 14.6065C42.3992 14.6065 43.2445 14.1705 43.8866 13.2974C44.5717 12.3616 44.9148 11.2006 44.9148 9.81194C44.9148 8.35586 44.5322 7.19726 43.7646 6.33735C43.1716 5.67856 42.4148 5.34856 41.4917 5.34856ZM41.1558 13.9297C40.8246 13.9297 40.5293 13.8418 40.2674 13.6671C39.9494 13.4539 39.7055 13.1637 39.5381 12.7988C39.2213 12.1147 39.061 11.1452 39.061 9.88782C39.061 8.26192 39.397 7.13825 40.0701 6.5168C40.4324 6.19041 40.821 6.02782 41.2395 6.02782C41.8313 6.02782 42.2773 6.34096 42.5774 6.96964C42.8954 7.6477 43.0544 8.60878 43.0544 9.85169C43.0544 12.5699 42.4207 13.9297 41.1558 13.9297Z" fill="black"/>
<path d="M60.7933 13.1383C60.3509 13.667 59.7985 13.9296 59.1385 13.9296C58.2908 13.9296 57.6918 13.5092 57.3439 12.6674C57.0928 12.0712 56.9661 11.1511 56.9601 9.90697H62.1957C62.1587 8.85195 61.9626 7.96915 61.6075 7.26098C60.9475 5.92895 59.9587 5.26294 58.6435 5.26294C57.7588 5.26294 57.0007 5.61823 56.3706 6.3276C55.5732 7.22485 55.1738 8.42199 55.1738 9.91661C55.1738 11.5437 55.5732 12.7866 56.3706 13.6477C57.0127 14.3378 57.8353 14.6835 58.8396 14.6835C60.205 14.6835 61.2894 13.8705 62.0941 12.2434L61.5238 11.9424C61.2799 12.4506 61.036 12.8504 60.7933 13.1383ZM57.1741 7.59941C57.479 6.49501 58.0003 5.9422 58.7356 5.9422C59.3896 5.9422 59.8702 6.39143 60.1751 7.28989C60.3437 7.79813 60.4274 8.44487 60.4274 9.23012H56.9768C56.984 8.5894 57.0498 8.04502 57.1741 7.59941Z" fill="black"/>
<path d="M53.5368 13.5804C53.3802 13.3985 53.3025 12.9553 53.3025 12.2532V1.41992L50.4976 1.5524V2.14615H50.7128C51.0738 2.14615 51.3201 2.22444 51.4517 2.38101C51.6083 2.55684 51.686 2.99282 51.686 3.69015V12.252C51.686 12.9553 51.6083 13.3973 51.4517 13.5792C51.3201 13.7358 51.075 13.8153 50.7128 13.8153H50.4043V14.4078H54.583V13.8153H54.2745C53.9206 13.8165 53.6731 13.7382 53.5368 13.5804Z" fill="black"/>
<path d="M48.6831 13.5805C48.5265 13.4059 48.4499 12.9627 48.4499 12.2533V5.40405L45.6438 5.53653V6.13992H45.859C46.2201 6.13992 46.4676 6.2158 46.5979 6.36514C46.7522 6.54097 46.8311 6.97816 46.8311 7.67549V12.2533C46.8311 12.9566 46.7522 13.3986 46.5979 13.5805C46.4664 13.7371 46.2201 13.8165 45.859 13.8165H45.5518V14.4091H49.7316V13.8165H49.4232C49.0597 13.8165 48.8134 13.7383 48.6831 13.5805Z" fill="black"/>
<path d="M8.91504 7.46704V10.0697H11.4988V7.46704H10.1609H8.91504Z" fill="black"/>
<path d="M1.16211 1.55225L1.03418 6.08909L1.7121 6.20712C1.83764 4.87027 2.18676 3.87788 2.75707 3.23113C3.35727 2.55428 4.18464 2.20019 5.24636 2.17009V11.6593C5.24636 12.4891 5.13158 13.0262 4.89126 13.2755C4.68681 13.4875 4.34247 13.6176 3.85585 13.6658C3.71237 13.6778 3.46608 13.6838 3.11695 13.6838V14.4101H9.41788V13.6838C9.06996 13.6838 8.82366 13.6778 8.67899 13.6658C8.19237 13.6176 7.84803 13.4875 7.64358 13.2755C7.40326 13.0262 7.28728 12.4891 7.28728 11.6593V2.17009C8.35019 2.20019 9.17756 2.55428 9.77776 3.23113C10.3481 3.87788 10.6972 4.87027 10.8227 6.20712L11.4995 6.08909L11.3715 1.55225H1.16211Z" fill="black"/>
<path d="M3.61911 7.46704H2.34099H1.03418V10.0697H3.61911V7.46704Z" fill="black"/>
<path d="M62.4819 6.29508V5.39662H62.2021V5.26294H62.9135V5.39662H62.6326V6.29508H62.4819ZM63.0367 6.29508V5.26294H63.234L63.4898 6.09997L63.7349 5.26294H63.9346V6.29508H63.7947V5.47973L63.5652 6.29508H63.4109L63.173 5.49538V6.29508H63.0367Z" fill="black"/>
</g>
<defs>
<clipPath id="clip0">
<rect width="65" height="16" fill="white"/>
</clipPath>
</defs>
</svg>
